<svg width="54" height="54" viewBox="0 0 54 54" fill="none" xmlns="http://www.w3.org/2000/svg">
<path d="M26.9768 53.9624C41.8756 53.9624 53.9535 41.8825 53.9535 26.9812C53.9535 12.0799 41.8756 0 26.9768 0C12.0779 0 0 12.0799 0 26.9812C0 41.8825 12.0779 53.9624 26.9768 53.9624Z" fill="#6CB565"/>
<path d="M41.2145 36.6863H13.1798C12.9071 36.6863 12.6858 36.465 12.6858 36.1922V22.4814C12.6858 22.2087 12.9071 21.9873 13.1798 21.9873C13.4525 21.9873 13.6738 22.2087 13.6738 22.4814V35.6981H40.7205V22.4814C40.7205 22.2087 40.9418 21.9873 41.2145 21.9873C41.4872 21.9873 41.7085 22.2087 41.7085 22.4814V36.1922C41.7085 36.4652 41.4874 36.6863 41.2145 36.6863Z" fill="white"/>
<path d="M41.2147 31.0048H13.18C12.9073 31.0048 12.686 30.7834 12.686 30.5107C12.686 30.238 12.9073 30.0166 13.18 30.0166H41.2147C41.4874 30.0166 41.7087 30.238 41.7087 30.5107C41.7087 30.7834 41.4877 31.0048 41.2147 31.0048Z" fill="white"/>
<path d="M41.2147 25.7352H13.18C12.9073 25.7352 12.686 25.5139 12.686 25.2412C12.686 24.9684 12.9073 24.7471 13.18 24.7471H41.2147C41.4874 24.7471 41.7087 24.9684 41.7087 25.2412C41.7087 25.5139 41.4877 25.7352 41.2147 25.7352Z" fill="white"/>
<path d="M23.7192 23.6233C23.4465 23.6233 23.2252 23.4019 23.2252 23.1292C23.2252 21.54 21.9324 20.247 20.3432 20.247C18.7542 20.247 17.4616 21.54 17.4616 23.1292C17.4616 23.4019 17.2403 23.6233 16.9676 23.6233C16.6949 23.6233 16.4736 23.4019 16.4736 23.1292C16.4736 20.995 18.2093 19.2588 20.3432 19.2588C22.4772 19.2588 24.2132 20.995 24.2132 23.1292C24.2132 23.4019 23.9921 23.6233 23.7192 23.6233Z" fill="white"/>
<path d="M37.632 23.6233C37.3593 23.6233 37.138 23.4019 37.138 23.1292C37.138 21.54 35.8452 20.247 34.256 20.247C32.667 20.247 31.3745 21.54 31.3745 23.1292C31.3745 23.4019 31.1532 23.6233 30.8805 23.6233C30.6078 23.6233 30.3865 23.4019 30.3865 23.1292C30.3865 20.995 32.1222 19.2588 34.256 19.2588C36.3901 19.2588 38.126 20.995 38.126 23.1292C38.126 23.4019 37.9047 23.6233 37.632 23.6233Z" fill="white"/>
<path d="M30.5737 19.0051C30.301 19.0051 30.0797 18.7838 30.0797 18.511C30.0797 16.9218 28.7869 15.6288 27.1976 15.6288C25.6087 15.6288 24.3161 16.9218 24.3161 18.511C24.3161 18.7838 24.0948 19.0051 23.8221 19.0051C23.5494 19.0051 23.3281 18.7838 23.3281 18.511C23.3281 16.3768 25.0638 14.6406 27.1976 14.6406C29.3317 14.6406 31.0677 16.3768 31.0677 18.511C31.0677 18.784 30.8466 19.0051 30.5737 19.0051Z" fill="white"/>
</svg>
