<svg width="28" height="29" viewBox="0 0 28 29" fill="none" xmlns="http://www.w3.org/2000/svg">
<path d="M3.07575 7.88137C3.08964 4.6831 5.97907 2.2206 9.1704 2.76376C10.198 1.06546 12.0283 0 14 0C15.9718 0 17.8021 1.06546 18.8297 2.76376C22.0203 2.2206 24.9104 4.6831 24.9249 7.88137C26.8096 8.9582 28.0001 10.9786 28.0001 13.1758C28.0001 16.9874 24.5119 19.8964 20.7301 19.1549L18.337 23.0694V27.2845C18.337 27.7392 17.9688 28.1081 17.5135 28.1081H10.4866C10.0319 28.1081 9.66303 27.7399 9.66303 27.2845V23.0694L7.27064 19.1549C3.48437 19.8964 0 16.9836 0 13.1758C0.000631332 10.9786 1.19051 8.9582 3.07575 7.88137ZM11.1895 22.4094C11.2685 22.5389 11.3102 22.6867 11.3102 22.8389V26.4616H16.6899V22.8389C16.6899 22.6873 16.7316 22.5389 16.8105 22.4094L19.136 18.6048C18.9389 18.5044 18.7488 18.3945 18.5631 18.2726C16.3053 21.3566 11.6948 21.3559 9.43692 18.2726C9.25124 18.3939 9.06052 18.5044 8.8641 18.6048L11.1895 22.4094ZM6.09529 17.6221C7.21254 17.6221 8.28116 17.2059 9.1041 16.4505C9.50894 16.0785 10.1582 16.2004 10.4007 16.6943C11.8653 19.6842 16.1316 19.6924 17.6012 16.6943C17.8431 16.2011 18.4924 16.0779 18.8972 16.4505C19.7208 17.2065 20.7894 17.6221 21.9067 17.6221C24.3584 17.6221 26.3536 15.6276 26.3536 13.1758C26.3536 11.4321 25.3266 9.84177 23.7382 9.12241C23.4149 8.97652 23.2216 8.63926 23.2582 8.28684C23.5266 5.69993 21.0661 3.74332 18.6459 4.49805C18.2492 4.62184 17.8229 4.4311 17.6505 4.05216C16.9867 2.59071 15.5537 1.64651 14 1.64651C12.4464 1.64651 11.0133 2.59071 10.3495 4.05216C10.1778 4.4311 9.75083 4.62184 9.35484 4.49805C6.92771 3.74016 4.47404 5.70814 4.74183 8.28684C4.77846 8.63926 4.58583 8.97589 4.26247 9.12241C2.67344 9.8424 1.6465 11.4327 1.6465 13.1758C1.64776 15.6282 3.64227 17.6221 6.09529 17.6221Z" fill="#3A7611"/>
<path d="M21.0285 13.6701C21.7852 13.6701 22.4009 13.0543 22.4009 12.2977C22.4009 11.843 22.7698 11.4741 23.2239 11.4741C23.6792 11.4741 24.0474 11.843 24.0474 12.2977C24.0474 13.9625 22.6927 15.3172 21.0285 15.3172C20.5738 15.3172 20.2043 14.949 20.2043 14.493C20.2037 14.0383 20.5732 13.6701 21.0285 13.6701Z" fill="#3A7611"/>
<path d="M4.77692 11.4741C5.23165 11.4741 5.6005 11.843 5.6005 12.2977C5.6005 13.0543 6.21628 13.6701 6.9729 13.6701C7.42763 13.6701 7.79646 14.0383 7.79646 14.493C7.79646 14.9484 7.42763 15.3172 6.9729 15.3172C5.30808 15.3172 3.95336 13.9625 3.95336 12.2977C3.95336 11.843 4.32155 11.4741 4.77692 11.4741Z" fill="#3A7611"/>
<path d="M10.9249 6.20264C12.1728 6.20264 13.2857 6.79189 14 7.70704C14.7136 6.79189 15.8271 6.20264 17.0745 6.20264C17.5292 6.20264 17.898 6.57084 17.898 7.02621C17.898 7.48157 17.5298 7.84977 17.0745 7.84977C15.8334 7.84977 14.8235 8.85902 14.8235 10.1007V10.5403C14.8235 10.995 14.4547 11.3632 14 11.3632C13.5452 11.3632 13.1758 10.995 13.1758 10.5403V10.1007C13.1758 8.85902 12.1665 7.84977 10.9249 7.84977C10.4701 7.84977 10.1019 7.48094 10.1019 7.02621C10.1019 6.57147 10.4701 6.20264 10.9249 6.20264Z" fill="#3A7611"/>
</svg>
