<svg width="54" height="54" viewBox="0 0 54 54" fill="none" xmlns="http://www.w3.org/2000/svg">
<path d="M26.6286 53.2839C41.3351 53.2839 53.2572 41.3559 53.2572 26.642C53.2572 11.928 41.3351 0 26.6286 0C11.922 0 0 11.928 0 26.642C0 41.3559 11.922 53.2839 26.6286 53.2839Z" fill="#6CB565"/>
<path d="M26.4504 33.0546C24.4165 33.0546 22.5882 31.8954 21.7026 30.1073C20.7774 30.8286 19.6475 31.2194 18.4553 31.2194C15.531 31.2194 13.1519 28.8391 13.1519 25.9133C13.1519 23.8038 14.4155 21.8955 16.3314 21.0563C16.3522 18.1483 18.7232 15.789 21.6346 15.789C21.6509 15.789 21.6673 15.7893 21.6836 15.7895C22.5692 13.9658 24.4039 12.8062 26.4504 12.8062C28.5199 12.8062 30.357 13.9802 31.234 15.8293C31.4493 15.8027 31.6646 15.7892 31.8777 15.7892C34.802 15.7892 37.1811 18.1696 37.1811 21.0953C37.1811 21.1205 37.1809 21.1451 37.1802 21.17C38.9681 22.0665 40.1052 23.8921 40.1052 25.9136C40.1052 28.8393 37.7261 31.2197 34.8018 31.2197C33.4986 31.2197 32.2585 30.7447 31.2962 29.8949C30.459 31.7893 28.5682 33.0546 26.4504 33.0546ZM21.8899 28.7996C21.9262 28.7996 21.9625 28.8037 21.9989 28.812C22.1642 28.8498 22.2978 28.9708 22.3519 29.1316C22.9463 30.8947 24.5935 32.0791 26.4504 32.0791C28.4048 32.0791 30.1225 30.7581 30.6269 28.8669C30.674 28.6905 30.8152 28.5554 30.9932 28.5161C31.1719 28.4769 31.3562 28.5405 31.4727 28.6805C32.2993 29.6738 33.5125 30.2437 34.8015 30.2437C37.1882 30.2437 39.1297 28.301 39.1297 25.9133C39.1297 24.1685 38.0913 22.6019 36.4843 21.923C36.2912 21.8413 36.172 21.6452 36.1878 21.4364C36.1964 21.3234 36.2054 21.2102 36.2054 21.0953C36.2054 18.7077 34.2639 16.765 31.8772 16.765C31.5981 16.765 31.3135 16.7933 31.0312 16.8496C30.7986 16.895 30.5675 16.7684 30.4816 16.5476C29.8297 14.8677 28.2471 13.7821 26.4499 13.7821C24.6835 13.7821 23.1104 14.8411 22.4426 16.4801C22.3626 16.6765 22.1637 16.7991 21.954 16.7823C21.8362 16.7733 21.7363 16.7652 21.6341 16.7652C19.2474 16.7652 17.3059 18.7079 17.3059 21.0956C17.3059 21.1583 17.3106 21.2197 17.315 21.2812L17.3196 21.3515C17.3333 21.5683 17.2018 21.7679 16.9975 21.8413C15.2806 22.4568 14.1269 24.0933 14.1269 25.9138C14.1269 28.3015 16.0684 30.2442 18.455 30.2442C19.6246 30.2442 20.7206 29.7831 21.5415 28.9464C21.6346 28.8513 21.7604 28.7996 21.8899 28.7996Z" fill="white"/>
<path d="M30.2131 40.4774H23.1991C22.9299 40.4774 22.7114 40.2589 22.7114 39.9895V35.346L19.7664 30.6668C19.623 30.4387 19.6913 30.1377 19.919 29.994C20.147 29.8506 20.4479 29.9187 20.5915 30.147L23.6116 34.9452C23.6606 35.0228 23.6867 35.113 23.6867 35.205V39.5014H29.7255V35.1982C29.7255 35.1103 29.7491 35.024 29.7942 34.9486L32.6468 30.157C32.7846 29.9257 33.0837 29.8501 33.3154 29.9875C33.5467 30.1253 33.6226 30.4248 33.4848 30.6563L30.701 35.3326V39.9893C30.7007 40.2589 30.4823 40.4774 30.2131 40.4774Z" fill="white"/>
<path d="M20.1793 27.9313C19.2597 27.9313 18.5107 27.6405 17.9538 27.0668C16.9373 26.0201 16.9715 24.4138 16.9734 24.3459C16.9812 24.0766 17.2043 23.8615 17.475 23.8725C17.7436 23.88 17.9553 24.104 17.9484 24.3728C17.9482 24.3855 17.9277 25.6442 18.657 26.3909C19.0283 26.7709 19.5262 26.9556 20.1796 26.9556C20.4487 26.9556 20.6672 27.1741 20.6672 27.4434C20.6672 27.7128 20.4485 27.9313 20.1793 27.9313Z" fill="white"/>
<path d="M32.7386 27.9314C32.4694 27.9314 32.251 27.7129 32.251 27.4435C32.251 27.1742 32.4694 26.9557 32.7386 26.9557C33.3918 26.9557 33.8899 26.7708 34.2612 26.391C34.9905 25.644 34.9702 24.3853 34.9697 24.3729C34.9636 24.1041 35.176 23.8801 35.4447 23.8733C35.4491 23.8731 35.4532 23.873 35.4576 23.873C35.7204 23.873 35.937 24.0816 35.9448 24.346C35.9467 24.4139 35.9808 26.0202 34.9644 27.0669C34.4073 27.6406 33.6585 27.9314 32.7386 27.9314Z" fill="white"/>
<path d="M26.3694 23.0772C26.1003 23.0772 25.8818 22.8586 25.8818 22.5893C25.8818 21.9336 25.6958 21.434 25.3132 21.0623C24.5713 20.341 23.3137 20.3556 23.3015 20.3568C23.0316 20.367 22.8081 20.1526 22.8 19.8833C22.7922 19.614 23.0041 19.3896 23.2733 19.3816C23.3398 19.3789 24.9463 19.3452 25.9928 20.3624C26.5662 20.9196 26.8568 21.6687 26.8568 22.5893C26.8571 22.8586 26.6389 23.0772 26.3694 23.0772Z" fill="white"/>
<path d="M26.3123 23.0771C26.0432 23.0771 25.8247 22.8586 25.8247 22.5893C25.8247 21.6689 26.1153 20.9195 26.6888 20.3624C27.735 19.3454 29.3417 19.3791 29.4083 19.3815C29.6774 19.3893 29.8896 19.614 29.8815 19.8833C29.8737 20.1523 29.6472 20.3697 29.3812 20.3567C29.3566 20.3577 28.1075 20.3392 27.3644 21.0656C26.9843 21.4369 26.7997 21.9353 26.7997 22.589C26.8 22.8586 26.5815 23.0771 26.3123 23.0771Z" fill="white"/>
</svg>
