<svg width="28" height="28" viewBox="0 0 28 28" fill="none" xmlns="http://www.w3.org/2000/svg">
<path d="M10.062 0C14.8984 0 18.9941 3.42872 19.9269 8.07318C24.5252 8.99841 27.9988 13.0701 27.9988 17.9368C27.9988 23.485 23.4857 27.9988 17.9368 27.9988C13.0694 27.9988 8.99843 24.5252 8.0732 19.9269C3.42431 18.9928 5.72205e-06 14.8946 5.72205e-06 10.0619C5.72205e-06 4.51436 4.51437 0 10.062 0ZM4.68614 3.58471C6.07177 4.24785 7.06395 5.55201 7.3191 7.08922C7.87929 7.01722 8.44898 7.05448 9.00033 7.2029C9.74115 4.81877 12.352 3.55945 14.6761 4.45436C14.8864 4.13101 15.1434 3.83923 15.439 3.59103C12.3097 0.992806 7.80729 0.990912 4.68614 3.58471ZM16.5998 4.76256C16.2411 5.03034 15.9658 5.40233 15.818 5.828C15.6437 6.33261 15.0399 6.5385 14.5921 6.24546C13.0417 5.22613 10.883 6.06736 10.5009 7.94434C11.1666 8.4559 11.6491 9.12346 11.9269 9.87185C13.7256 8.5279 15.9146 7.81992 18.1977 7.87803C17.8863 6.71912 17.3331 5.66316 16.5998 4.76256ZM12.2181 11.7615C13.3271 12.4852 14.0957 13.6504 14.3168 14.9647C15.6222 14.7967 16.8967 15.2312 17.8194 16.0895C19.0616 15.0664 20.7113 14.8523 22.1127 15.3917C22.7802 14.3597 23.912 13.6896 25.1669 13.6233C22.4196 9.03504 16.1558 8.11234 12.2181 11.7615ZM26.3593 17.9368C26.3593 17.0002 26.2045 16.099 25.9216 15.2571H25.3753C24.4191 15.2571 23.5678 15.8634 23.2558 16.7653C23.0808 17.2699 22.4771 17.4758 22.03 17.1821C21.5954 16.8966 21.0877 16.7451 20.5628 16.7451C18.8753 16.7451 17.5996 18.2962 17.9375 19.9616C18.043 20.482 17.6337 20.9588 17.1145 20.9443C15.3986 20.9077 13.946 22.3091 13.946 24.0616C13.946 24.5795 14.0742 25.0879 14.318 25.5401C15.415 26.0643 16.6434 26.3586 17.9381 26.3586C22.5807 26.358 26.3593 22.5807 26.3593 17.9368ZM12.3071 24.1943C12.2402 21.8064 13.953 19.774 16.2418 19.3749C16.2506 18.6448 16.4407 17.9577 16.7697 17.3564C16.003 16.5903 14.853 16.3617 13.8639 16.7665C13.3 16.9977 12.6924 16.555 12.7347 15.9499C12.82 14.7601 12.1827 13.5923 11.1116 13.0101C8.60621 16.4697 9.08178 21.2891 12.3071 24.1943ZM7.87803 18.1964C7.81046 15.5464 8.77863 13.0328 10.5426 11.1204C10.3727 9.29208 8.4875 8.22728 6.8644 8.89168C6.30421 9.12093 5.6935 8.68263 5.73582 8.07444C5.83939 6.62439 4.89079 5.25391 3.44011 4.86488C2.31341 6.29724 1.6408 8.10223 1.6408 10.0619C1.6408 13.8942 4.25922 17.2251 7.87803 18.1964Z" fill="#8FC67E"/>
</svg>
