<svg width="27" height="27" viewBox="0 0 27 27" fill="none" xmlns="http://www.w3.org/2000/svg">
<path d="M0.15888 8.80617C0.820255 7.92616 1.8367 7.25748 3.13022 6.84579C2.4189 5.56445 1.98587 4.13573 2.1704 2.84221C2.21912 2.49447 2.49319 2.22042 2.84214 2.16987C4.13566 1.98596 5.56498 2.41895 6.84571 3.13027C7.25678 1.83675 7.92424 0.820325 8.80608 0.158949C9.08805 -0.0529831 9.47538 -0.0529831 9.75735 0.158949C11.7634 1.66623 12.1294 4.49504 12.1763 5.96273C13.8024 5.94812 15.4339 6.55896 16.6726 7.79645C17.7493 8.87438 20.3175 11.9005 22.6262 15.4382C25.5287 19.8851 27 23.5081 27 26.2084C27 26.6457 26.6456 26.9995 26.2089 26.9995C23.5086 26.9995 19.8851 25.5281 15.4387 22.6256C11.9004 20.3169 8.8743 17.7481 7.79697 16.672C7.79697 16.6714 7.79697 16.6714 7.79697 16.6714C6.55948 15.4339 5.94805 13.8024 5.96328 12.1758C4.49558 12.1289 1.66615 11.7629 0.159475 9.75621C-0.0530663 9.47485 -0.0530529 9.08753 0.15888 8.80617ZM6.03148 8.09729C6.31833 8.38535 6.6204 8.64418 6.93343 8.87317C7.42855 8.09304 8.09175 7.42921 8.8731 6.93409C7.73365 5.37444 5.52419 3.84463 3.71606 3.71613C3.82446 5.23924 4.92432 6.99073 6.03148 8.09729ZM9.27989 1.86842C8.72387 2.50239 8.40842 3.33063 8.22938 4.0462C9.04483 4.67896 9.75797 5.41159 10.3292 6.25688C10.4181 6.22826 10.5077 6.20146 10.5972 6.17771C10.5728 4.34949 10.0923 2.8008 9.27989 1.86842ZM8.91573 15.5533C9.18795 15.8255 9.58926 16.1958 10.0935 16.6318L11.6745 15.0503C11.9839 14.7409 12.4845 14.7409 12.7938 15.0503C13.1026 15.359 13.1026 15.8596 12.7938 16.1684L11.3115 17.6507C12.6873 18.7664 14.4558 20.0952 16.3583 21.3352L17.5812 20.1123C17.89 19.8035 18.3906 19.8035 18.6993 20.1123C19.0081 20.4217 19.0081 20.9223 18.6993 21.2316L17.7322 22.1987C20.357 23.7876 23.1115 25.0872 25.3624 25.3637C25.2114 24.1286 24.7516 22.742 24.1061 21.309L23.762 21.6531C23.4532 21.9618 22.9526 21.9618 22.6432 21.6531C22.3344 21.3437 22.3344 20.8437 22.6432 20.5343L23.3716 19.806C22.547 18.2305 21.5519 16.6428 20.541 15.1751L19.5623 16.1654C19.2566 16.4753 18.756 16.4802 18.4442 16.172C18.133 15.8651 18.1299 15.3645 18.4368 15.0533L19.6122 13.8645C18.0276 11.691 16.5233 9.9182 15.6969 9.06255L14.0746 10.6843C13.7658 10.9931 13.2652 10.9931 12.9564 10.6843C12.6477 10.3756 12.6477 9.87497 12.9564 9.5656L14.4339 8.08816C12.6513 7.14421 10.4011 7.43165 8.91633 8.91578C7.08567 10.7452 7.08568 13.7233 8.91573 15.5533ZM6.17705 10.5985C6.20201 10.5089 6.2282 10.4188 6.25622 10.3305C5.40605 9.75559 4.67523 9.04124 4.04613 8.23066C3.33482 8.40848 2.50415 8.72395 1.86835 9.28119C2.80012 10.093 4.34943 10.5735 6.17705 10.5985Z" fill="#8FC67E"/>
</svg>
