<svg width="28" height="28" viewBox="0 0 28 28" fill="none" xmlns="http://www.w3.org/2000/svg">
<path d="M0.823009 13.1787H0.96764C0.944273 12.8693 0.931637 12.5585 0.931637 12.2491C0.931637 10.2401 2.19097 8.46226 4.05786 7.77954C3.4863 4.31923 6.75207 1.42227 10.1341 2.44666C10.8844 0.929022 12.3995 0 14.0018 0C15.6028 0 17.1191 0.929022 17.8701 2.44666C21.2546 1.42227 24.5159 4.32239 23.945 7.77954C25.8169 8.46352 27.0719 10.2451 27.0719 12.2491C27.0719 12.5585 27.0586 12.8693 27.0352 13.1787H27.1798C27.6333 13.1787 28.0002 13.5463 28.0002 13.9991V15.4201C28.0002 20.3956 23.9526 24.4439 18.9778 24.4439H17.7058L16.9846 27.3737C16.8936 27.7406 16.5659 27.9976 16.1876 27.9976H11.8128C11.4351 27.9976 11.1067 27.74 11.0163 27.3737L10.2945 24.4439H9.02318C4.04839 24.4439 6.48499e-05 20.3956 6.48499e-05 15.4201V13.9991C0.00259018 13.5463 0.370182 13.1787 0.823009 13.1787ZM25.4311 12.2491C25.4311 10.6986 24.2974 9.41212 22.8151 9.17213C22.3048 9.0894 21.9979 8.56204 22.1766 8.07827C22.9067 6.10465 21.4933 3.95293 19.3555 3.88409C18.8054 3.8664 18.2635 3.99208 17.7848 4.2485C17.3136 4.49986 16.7307 4.24155 16.6012 3.72241C16.3012 2.51613 15.208 1.64016 14.0018 1.64016C12.7955 1.64016 11.7022 2.51676 11.4016 3.72241C11.2722 4.24218 10.6892 4.49923 10.2187 4.2485C9.73996 3.99208 9.19619 3.86577 8.648 3.88409C6.50891 3.95293 5.09739 6.10402 5.82684 8.07827C6.0062 8.56268 5.69802 9.09003 5.18772 9.17213C3.67261 9.41718 2.5724 10.7112 2.5724 12.2491C2.5724 12.5592 2.58695 12.8699 2.61411 13.1787H5.79843C9.43368 13.1787 12.5738 15.3399 14.0011 18.4447C15.4291 15.3393 18.5679 13.1787 22.2038 13.1787H25.3894C25.4178 12.8699 25.4311 12.5592 25.4311 12.2491ZM26.3607 15.4208V14.8195H22.205C18.4953 14.8195 15.4164 17.5693 14.8998 21.1376C16.8179 19.015 19.3252 17.4639 22.0983 16.7079C22.5354 16.5885 22.9863 16.8462 23.1057 17.2832C23.225 17.7203 22.9667 18.1712 22.5303 18.2899C19.819 19.0295 17.3938 20.6217 15.6343 22.8031H18.9791C23.0488 22.8037 26.3607 19.4918 26.3607 15.4208ZM12.4576 26.3581H15.5465L16.017 24.4445H11.9858L12.4576 26.3581ZM1.64341 15.4208C1.64341 19.4918 4.95467 22.8037 9.02507 22.8037H12.3698C10.6096 20.6217 8.18447 19.0295 5.47382 18.2906C5.03741 18.1718 4.77844 17.7209 4.89781 17.2839C5.01717 16.8468 5.46811 16.5892 5.90578 16.7085C8.67896 17.4645 11.1863 19.0156 13.1043 21.1389C12.5877 17.57 9.50882 14.8208 5.79904 14.8208H1.64341V15.4208Z" fill="#8FC67E"/>
<path d="M19.2511 9.57056C18.7983 9.57056 18.4314 9.20362 18.4314 8.75079C18.4314 7.99671 17.8175 7.38347 17.0641 7.38347C16.6112 7.38347 16.2437 7.01653 16.2437 6.56307C16.2437 6.11024 16.6112 5.74268 17.0641 5.74268C18.7225 5.74268 20.0715 7.09232 20.0715 8.75079C20.0715 9.20362 19.7046 9.57056 19.2511 9.57056Z" fill="#8FC67E"/>
<path d="M10.939 7.38347C10.1849 7.38347 9.5723 7.99671 9.5723 8.75079C9.5723 9.20362 9.2047 9.57056 8.75124 9.57056C8.29841 9.57056 7.93211 9.20362 7.93211 8.75079C7.93211 7.09232 9.28052 5.74268 10.939 5.74268C11.3925 5.74268 11.76 6.11024 11.76 6.56307C11.76 7.01653 11.3925 7.38347 10.939 7.38347Z" fill="#8FC67E"/>
<path d="M16.2438 12.906C15.8813 13.1788 15.3672 13.1049 15.0957 12.743C14.5468 12.013 13.4562 12.0123 12.9073 12.743C12.7463 12.9571 12.4993 13.0702 12.2505 13.0702C11.5867 13.0702 11.1844 12.3047 11.5956 11.7572C12.1615 11.0037 13.0602 10.5547 14.0018 10.5547C14.9435 10.5547 15.8415 11.0037 16.4081 11.7572C16.6796 12.1197 16.6064 12.6344 16.2438 12.906Z" fill="#8FC67E"/>
</svg>
