<svg width="28" height="28" viewBox="0 0 28 28" fill="none" xmlns="http://www.w3.org/2000/svg">
<path d="M24.7914 16.9371C23.9774 16.5996 23.1327 16.5584 22.3798 16.7898C22.1471 14.0763 21.1434 11.5916 18.3013 10.1718C16.8117 9.42639 14.997 9.03775 12.78 8.84499C15.4511 7.16632 17.2302 4.19199 17.2302 0.810317C17.2302 0.362421 16.8678 0 16.4205 0C11.4631 0 7.38279 3.82332 6.96982 8.67531H0.804715C-0.268238 8.71523 -0.268238 10.2554 0.804715 10.296C2.98368 10.296 4.37104 10.7507 5.30488 11.7682C6.22812 12.7756 6.75149 14.4156 6.89434 16.7618C6.16636 16.5628 5.35915 16.6145 4.58001 16.9371C-0.684318 19.4853 1.85895 27.7184 7.74522 27.6466C13.6315 27.7184 16.1735 19.4841 10.9098 16.9371C10.1039 16.6027 9.26669 16.559 8.51874 16.783C8.31476 13.6808 7.69719 11.7838 6.11645 10.296H7.74522C14.1673 10.4594 20.0692 10.1594 20.751 16.7549C20.0293 16.5628 19.2314 16.6177 18.4623 16.9371C13.1967 19.4859 15.7418 27.7184 21.6269 27.6466C27.5131 27.7184 30.0552 19.4841 24.7914 16.9371ZM8.31787 18.7342C8.81255 18.2389 9.55053 18.1267 10.291 18.4342C11.1849 18.8047 12.1418 19.839 12.1418 21.6318C12.1418 24.0553 10.17 26.0278 7.74646 26.0278C5.32234 26.0278 3.35111 24.0553 3.35111 21.6318C3.35111 19.839 4.30741 18.8047 5.20133 18.4342C6.01041 18.0986 6.72654 18.2876 7.17319 18.7342C7.48946 19.0499 8.00223 19.0499 8.31787 18.7342ZM15.5653 1.66619C15.1673 5.32047 12.256 8.2324 8.60171 8.62915C8.99907 4.97487 11.9104 2.06356 15.5653 1.66619ZM21.6262 26.0272C19.2034 26.0272 17.2315 24.0547 17.2315 21.6312C17.2315 19.8384 18.1878 18.8041 19.0823 18.4336C19.8908 18.098 20.6069 18.287 21.0548 18.7336C21.3705 19.0493 21.8845 19.0493 22.2001 18.7336C22.6948 18.2383 23.4315 18.126 24.1726 18.4336C25.0672 18.8041 26.0228 19.8384 26.0228 21.6312C26.0222 24.0547 24.0504 26.0272 21.6262 26.0272Z" fill="#8FC67E"/>
</svg>
