<svg width="53" height="53" viewBox="0 0 53 53" fill="none" xmlns="http://www.w3.org/2000/svg">
<path d="M26.042 52.0377C40.4245 52.0377 52.0839 40.3887 52.0839 26.0188C52.0839 11.649 40.4245 0 26.042 0C11.6594 0 0 11.649 0 26.0188C0 40.3887 11.6594 52.0377 26.042 52.0377Z" fill="#6AB354"/>
<path d="M23.5423 36.9992H19.4001C19.1369 36.9992 18.9232 36.7857 18.9232 36.5227V19.9047H15.1156C14.8523 19.9047 14.6387 19.6913 14.6387 19.4282V16.2567C14.6387 16.0096 14.8275 15.8038 15.0738 15.7821L23.5006 15.0427C23.6327 15.0298 23.7658 15.0758 23.8645 15.1661C23.9632 15.2561 24.0192 15.3838 24.0192 15.5174V36.5232C24.0192 36.7857 23.8056 36.9992 23.5423 36.9992ZM19.877 36.0463H23.0655V16.0373L15.5924 16.6931V18.9518H19.4001C19.6634 18.9518 19.877 19.1652 19.877 19.4282V36.0463Z" fill="white"/>
<path d="M34.7443 36.9992H30.6023C30.339 36.9992 30.1254 36.7857 30.1254 36.5227V19.9047H26.3175C26.0542 19.9047 25.8406 19.6913 25.8406 19.4282V16.2567C25.8406 16.0096 26.0294 15.8038 26.2757 15.7821L34.7025 15.0427C34.8341 15.0298 34.9677 15.0758 35.0664 15.1661C35.1651 15.2561 35.2211 15.3838 35.2211 15.5174V36.5232C35.2211 36.7857 35.0077 36.9992 34.7443 36.9992ZM31.0792 36.0463H34.2674V16.0373L26.7943 16.6931V18.9518H30.6023C30.8655 18.9518 31.0792 19.1652 31.0792 19.4282V36.0463Z" fill="white"/>
</svg>
