<svg width="53" height="53" viewBox="0 0 53 53" fill="none" xmlns="http://www.w3.org/2000/svg">
<path d="M26.042 52.0377C40.4245 52.0377 52.0839 40.3887 52.0839 26.0189C52.0839 11.649 40.4245 0 26.042 0C11.6594 0 0 11.649 0 26.0189C0 40.3887 11.6594 52.0377 26.042 52.0377Z" fill="#6AB354"/>
<path d="M26.9949 32.5061H17.8177C17.5545 32.5061 17.3408 32.2926 17.3408 32.0296V21.2656C17.3408 21.148 17.3845 21.0346 17.4631 20.9471L22.051 15.8495C22.2317 15.6486 22.5792 15.6484 22.7601 15.8492L27.3494 20.9469C27.4284 21.0343 27.4718 21.148 27.4718 21.2656V32.0296C27.4718 32.2929 27.2581 32.5061 26.9949 32.5061ZM18.2946 31.5532H26.518V21.4486L22.4056 16.8805L18.2946 21.4484V31.5532Z" fill="white"/>
<path d="M15.511 32.5063H6.65071C6.38747 32.5063 6.17383 32.2928 6.17383 32.0298V24.4071C6.17383 24.1441 6.38747 23.9307 6.65071 23.9307H15.511C15.7742 23.9307 15.9879 24.1441 15.9879 24.4071V32.0298C15.9879 32.293 15.7742 32.5063 15.511 32.5063ZM7.1276 31.5533H15.0341V24.8836H7.1276V31.5533Z" fill="white"/>
<path d="M39.4914 32.5063H29.0843C28.8211 32.5063 28.6074 32.2928 28.6074 32.0298V24.4071C28.6074 24.1441 28.8211 23.9307 29.0843 23.9307H39.4914C39.7546 23.9307 39.9682 24.1441 39.9682 24.4071V32.0298C39.9682 32.293 39.7548 32.5063 39.4914 32.5063ZM29.5612 31.5533H39.0145V24.8836H29.5612V31.5533Z" fill="white"/>
<path d="M46.7639 32.5061H43.8809C43.6177 32.5061 43.4041 32.2926 43.4041 32.0296V21.7826C43.4041 21.5196 43.6177 21.3062 43.8809 21.3062H46.7639C47.0272 21.3062 47.2408 21.5196 47.2408 21.7826V32.0296C47.2408 32.2929 47.0274 32.5061 46.7639 32.5061ZM44.3578 31.5532H46.2871V22.2591H44.3578V31.5532Z" fill="white"/>
<path d="M46.7389 27.2898H39.8245C39.5613 27.2898 39.3477 27.0764 39.3477 26.8134C39.3477 26.5504 39.5613 26.3369 39.8245 26.3369H46.7389C47.0021 26.3369 47.2158 26.5504 47.2158 26.8134C47.2158 27.0764 47.0021 27.2898 46.7389 27.2898Z" fill="white"/>
</svg>
