<svg width="280" height="153" viewBox="0 0 280 153" fill="none" xmlns="http://www.w3.org/2000/svg">
<path d="M170.218 71.052H171.048V72.3795H170.218V74.2925H168.524V72.3795H165.392L165.308 71.3441L168.518 65.5854H170.219V71.052H170.218ZM166.806 71.052H168.524V67.906L168.489 67.8998L168.333 68.2466L166.806 71.052Z" fill="#7A0627"/>
<path d="M175.809 74.2936H174.12V67.052L172.534 67.0936V65.796L175.809 65.4604V74.2936Z" fill="#7A0627"/>
<path d="M183.763 66.9083C182.896 67.9808 182.308 68.9851 181.999 69.9225C181.691 70.8598 181.537 71.9616 181.537 73.2294V74.294H179.843V73.2294C179.843 72.0055 180.039 70.8863 180.43 69.8718C180.822 68.8568 181.392 67.8687 182.14 66.9083H178.202V65.5864H183.763V66.9083Z" fill="#7A0627"/>
<path d="M192.538 66.9083H189.269V74.2934H187.58V65.5864H192.538V66.9083Z" fill="#7A0627"/>
<path d="M195.373 74.2932C195.31 74.1496 195.257 73.9943 195.215 73.827C195.174 73.6598 195.143 73.4881 195.123 73.3131C194.98 73.6356 194.792 73.9008 194.559 74.108C194.326 74.3151 194.041 74.4193 193.703 74.4193C193.114 74.4193 192.661 74.2465 192.345 73.9019C192.029 73.5574 191.871 73.0839 191.871 72.4815C191.871 71.8521 192.078 71.3629 192.494 71.0138C192.909 70.6654 193.531 70.4903 194.358 70.4903H195.093V69.9521C195.093 69.6295 195.033 69.3812 194.914 69.2078C194.795 69.0344 194.618 68.9477 194.383 68.9477C194.177 68.9477 194.019 69.0175 193.912 69.1566C193.805 69.2968 193.751 69.4961 193.751 69.755L192.128 69.7488L192.116 69.7134C192.092 69.1555 192.301 68.6809 192.742 68.2902C193.183 67.9 193.767 67.7041 194.491 67.7041C195.171 67.7041 195.721 67.9 196.144 68.2902C196.565 68.6809 196.776 69.2393 196.776 69.965V72.62C196.776 72.9235 196.798 73.2106 196.841 73.4814C196.885 73.7522 196.952 74.0235 197.044 74.2943H195.373V74.2932ZM194.138 73.1689C194.361 73.1689 194.559 73.1002 194.735 72.9629C194.91 72.8255 195.028 72.6589 195.093 72.4635V71.4468H194.358C194.076 71.4468 193.871 71.538 193.741 71.7215C193.612 71.9045 193.547 72.1359 193.547 72.4151C193.547 72.638 193.601 72.8199 193.708 72.9595C193.815 73.0991 193.959 73.1689 194.138 73.1689Z" fill="#7A0627"/>
<path d="M96.2006 72.4805H95.5177V70.6519H92.2226V72.4805H91.542V68.3696H92.2226V70.0372H95.5177V68.3696H96.2006V72.4805Z" fill="#7A0627"/>
<path d="M98.2592 68.3696H97.5752V72.4805H98.2592V68.3696Z" fill="#7A0627"/>
<path d="M104.677 70.3621C104.677 71.032 104.436 71.5696 103.96 71.984C103.479 72.3938 102.844 72.601 102.053 72.601C101.329 72.601 100.725 72.4169 100.241 72.0493C99.69 71.6333 99.4158 71.0894 99.4158 70.4189C99.4158 69.7614 99.6928 69.2187 100.252 68.7942C100.738 68.4243 101.36 68.2368 102.11 68.2368C103.014 68.2368 103.755 68.569 104.336 69.231L103.7 69.5502C103.272 69.0937 102.721 68.8634 102.052 68.8634C101.528 68.8634 101.093 68.9918 100.738 69.2485C100.328 69.5486 100.126 69.9393 100.126 70.4189C100.126 70.8823 100.301 71.2561 100.652 71.5438C101.005 71.8337 101.472 71.9761 102.052 71.9761C102.96 71.9761 103.552 71.6226 103.824 70.9132H101.91V70.299H104.677V70.3621H104.677Z" fill="#7A0627"/>
<path d="M110.496 72.4805H109.813V70.6519H106.518V72.4805H105.836V68.3696H106.518V70.0372H109.813V68.3696H110.496V72.4805Z" fill="#7A0627"/>
<path d="M116.001 70.3634C116.47 70.5211 116.705 70.8696 116.705 71.4016C116.705 72.1205 116.185 72.4814 115.146 72.4814H111.869V68.3677H115.193C115.608 68.3677 115.937 68.4713 116.176 68.6751C116.415 68.88 116.535 69.1547 116.535 69.4936C116.535 69.8686 116.356 70.1607 116.001 70.3634ZM115.206 70.0915C115.396 70.0915 115.554 70.0358 115.679 69.9294C115.807 69.819 115.872 69.6862 115.872 69.5302C115.872 69.3641 115.813 69.2296 115.699 69.1316C115.589 69.0309 115.43 68.9819 115.233 68.9819H112.551V70.0915H115.206ZM115.153 71.8683C115.721 71.8683 116.006 71.6825 116.006 71.3081C116.006 70.9044 115.76 70.7035 115.262 70.7035H112.551V71.8683H115.153Z" fill="#7A0627"/>
<path d="M122.184 72.4805H117.877V68.3696H122.023V68.9816H118.558V70.0372H120.968V70.6519H118.558V71.8674H122.184V72.4805Z" fill="#7A0627"/>
<path d="M127.876 72.4805H127.084L125.969 70.9131H123.894V72.4805H123.21V68.3696H126.456C126.888 68.3696 127.226 68.485 127.472 68.7159C127.72 68.9506 127.844 69.2659 127.844 69.6634C127.844 70.0118 127.742 70.2922 127.541 70.5033C127.354 70.702 127.099 70.8253 126.775 70.8799L127.876 72.4805ZM126.353 70.299C126.879 70.299 127.143 70.0884 127.143 69.6634C127.143 69.209 126.857 68.9816 126.288 68.9816H123.894V70.299H126.353Z" fill="#7A0627"/>
<path d="M133.603 72.4805H132.811L131.696 70.9131H129.621V72.4805H128.939V68.3696H132.181C132.616 68.3696 132.954 68.485 133.199 68.7159C133.447 68.9506 133.57 69.2659 133.57 69.6634C133.57 70.0118 133.469 70.2922 133.268 70.5033C133.08 70.702 132.829 70.8253 132.502 70.8799L133.603 72.4805ZM132.078 70.299C132.606 70.299 132.87 70.0884 132.87 69.6634C132.87 69.209 132.585 68.9816 132.019 68.9816H129.621V70.299H132.078Z" fill="#7A0627"/>
<path d="M139.188 68.3696L136.938 70.8574V72.4805H136.256V70.8574L134.006 68.3696H134.858L136.602 70.2883L138.337 68.3696H139.188Z" fill="#7A0627"/>
<path d="M139.224 66.1946L138.757 66.5397H132.298C132.604 66.2566 133.595 65.1441 133.398 62.725C133.346 62.0911 133.136 61.496 132.821 60.946C133.02 61.3592 133.153 61.8029 133.197 62.2831C133.449 65.0298 132.396 66.1817 131.955 66.5403H124.378L124.369 65.7792V57.8063C124.675 57.9127 124.977 58.0219 125.267 58.1379C126.404 58.7988 127.571 59.7947 127.795 61.2022C127.932 62.0691 127.967 63.1427 127.798 63.8386C127.386 65.541 126.172 66.3709 126.172 66.3709H131.258C131.258 66.3709 133.072 65.6367 132.661 61.8304C132.39 59.3331 129.627 57.8311 128.046 57.2394C126.881 56.7766 125.646 56.3938 124.369 56.0853V55.31C124.376 55.2689 124.38 55.2278 124.38 55.1867C124.38 53.96 127.553 53.5474 127.553 53.5474V53.0553L126.809 52.5869C126.809 52.5869 126.491 53.0553 126.197 53.0553H125.21C124.011 53.0553 122.039 53.3717 122.039 53.3717C122.039 53.3717 120.127 53.0553 118.748 53.0553C117.987 53.0553 115.93 53.0429 115.93 53.0429L116.606 53.5012C116.606 53.5012 119.774 53.6881 119.774 55.1867C119.774 55.2363 119.779 55.2802 119.787 55.3264C117.109 55.0595 114.351 55.0826 111.681 55.3737V55.3078C111.689 55.2689 111.693 55.2273 111.693 55.1867C111.693 53.96 114.865 53.5474 114.865 53.5474V53.0553L114.117 52.5869C114.117 52.5869 113.951 53.0429 113.907 53.0429C113.349 53.0429 112.931 53.0553 112.522 53.0553C111.32 53.0553 109.245 53.3717 109.245 53.3717C109.245 53.3717 107.438 53.0553 106.062 53.0553C105.299 53.0553 103.237 53.0429 103.237 53.0429L103.917 53.5012C103.917 53.5012 107.086 53.6881 107.086 55.1867C107.086 55.2391 107.091 55.2864 107.098 55.3342V56.1697C106.419 56.3459 105.322 56.6432 104.794 56.8554C103.65 57.3193 101.954 57.8108 101.954 57.8108C101.954 57.8108 99.3988 57.8682 97.9739 57.8682H95.753V58.3163C95.753 58.3163 99.0351 58.5049 99.0351 60.0025C99.0351 60.0526 99.0414 60.1004 99.0487 60.1494V66.3714H103.791V60.1229C103.802 60.0863 103.802 60.0419 103.804 60.0025C103.831 58.5094 105.701 57.7348 107.098 57.3328V57.7252C105.782 58.1615 104.294 58.9255 104.271 60.2659C104.267 60.3059 104.267 60.3487 104.258 60.3875V66.5409H91.4395L92.1195 66.9136H139.969V66.5409L139.224 66.1946ZM124.369 57.6824C124.404 57.6937 124.439 57.7033 124.471 57.7179C124.706 57.8288 124.952 57.9583 125.202 58.1007C125.115 58.0562 125.022 58.009 124.937 57.9684C124.752 57.893 124.562 57.822 124.369 57.7517V57.6824ZM107.099 65.7786L107.091 66.5397H104.481V60.5728C104.492 60.5333 104.493 60.4934 104.493 60.4517C104.493 59.1349 105.825 58.4098 107.099 57.9847V65.7786ZM119.788 65.6756C119.788 65.6756 118.16 65.6958 115.649 65.6958C113.139 65.6958 111.682 65.6756 111.682 65.6756V56.9703C114.568 56.5266 117.314 56.4934 119.788 56.7912V65.6756ZM119.788 56.6494C117.325 56.3161 114.578 56.3161 111.682 56.7276V56.4191C114.591 56.0509 117.337 56.1033 119.788 56.4776V56.6494Z" fill="#9D9A7E"/>
<path d="M138.801 74.6442H131.454C131.337 74.5631 131.258 74.5282 131.258 74.5282H126.172C126.172 74.5282 126.232 74.5727 126.319 74.6442H103.792V74.5282H99.0505V74.6442H91.376L92.1213 75.0163H99.051V80.7553C99.0432 80.802 99.0375 80.8499 99.0375 80.9011C99.0375 82.3964 95.7554 82.5889 95.7554 82.5889V83.0376H97.9758C99.4012 83.0376 101.957 83.0933 101.957 83.0933C101.957 83.0933 103.653 83.5843 104.796 84.0465C105.324 84.261 106.422 84.5571 107.103 84.7316V85.0238C106.458 84.8498 105.682 84.6286 105.265 84.4586C104.119 83.9913 102.423 83.6541 102.423 83.6541C102.423 83.6541 99.8685 83.5967 98.4436 83.5967H96.637L96.668 83.8945L102.335 83.9024C102.335 83.9024 104.488 84.2452 105.633 84.7119C105.972 84.8498 106.55 85.0109 107.103 85.1482V86.5027C107.093 86.5506 107.088 86.5985 107.088 86.6491C107.088 88.1478 103.238 88.32 103.238 88.32L103.919 89.0598H106.063C107.439 89.0598 109.247 88.7395 109.247 88.7395C109.247 88.7395 111.322 89.0598 112.524 89.0598H114.866V88.5677L114.117 87.8246L113.752 88.1027C113.752 88.1027 111.693 87.569 111.693 86.6491C111.693 86.6075 111.691 86.5669 111.681 86.5292V86.0298C114.358 86.3856 117.102 86.4555 119.788 86.2325V86.5022C119.779 86.55 119.773 86.5979 119.773 86.6486C119.773 88.1472 115.858 88.3167 115.858 88.3167L116.605 89.0592H118.747C120.126 89.0592 122.036 88.7389 122.036 88.7389C122.036 88.7389 124.01 89.0592 125.209 89.0592H127.551V88.5672L126.806 87.8241C126.806 87.8241 126.479 88.0132 126.372 87.9929C125.441 87.7931 124.381 87.5088 124.381 86.6486C124.381 86.6069 124.378 86.5664 124.368 86.5275V85.5463C125.79 85.2321 127.177 84.8341 128.496 84.3375C131.142 83.3416 132.987 81.5559 133.258 79.7008C133.754 76.2808 132.099 75.067 132.099 75.067H132.015C132.514 75.4628 133.438 76.6022 133.129 79.4509C132.884 81.6617 130.298 83.4019 128.715 83.9964C127.358 84.5413 125.894 84.9737 124.368 85.3109V84.8178C125.646 84.5092 126.882 84.1264 128.046 83.6631C129.627 83.0714 132.39 81.5683 132.659 79.0714C132.91 76.7638 132.343 75.59 131.857 75.0163H139.971V74.6442L139.223 74.2935L138.801 74.6442ZM115.649 76.14C118.159 76.14 119.788 76.1603 119.788 76.1603V84.4254C117.337 84.802 114.588 84.8532 111.682 84.4845V76.1603C111.682 76.1603 113.138 76.14 115.649 76.14ZM103.805 80.9017C103.805 80.8583 103.804 80.8195 103.792 80.7801V75.0169H104.261V81.1702C104.269 81.2074 104.27 81.2496 104.272 81.2935C104.281 81.7979 104.503 82.2202 104.84 82.5732C104.247 82.1521 103.818 81.6094 103.805 80.9017ZM105.115 82.7528C104.766 82.4003 104.533 81.9837 104.523 81.4793C104.523 81.4354 104.523 81.3965 104.512 81.3566V75.0163H107.112L107.102 76.0573V83.5713C106.462 83.3872 105.731 83.1249 105.115 82.7528ZM119.788 86.009C117.092 86.2443 114.33 86.1993 111.682 85.8863V85.5294C114.352 85.8227 117.11 85.8435 119.788 85.5783V86.009ZM127.798 77.0639C127.966 77.7597 127.931 78.835 127.796 79.7008C127.517 81.4421 125.801 82.5658 124.47 83.1834C124.436 83.1969 124.402 83.2099 124.368 83.2206V76.0573L124.379 75.0163H126.703C127.085 75.4329 127.565 76.1046 127.798 77.0639Z" fill="#9D9A7E"/>
<path d="M123.633 66.1942L123.62 65.3121V54.8407C123.63 54.8035 123.635 54.7607 123.635 54.7196C123.635 53.4929 126.807 53.0785 126.807 53.0785V52.5859H124.462C123.263 52.5859 121.294 52.9057 121.294 52.9057C121.294 52.9057 119.381 52.5859 118 52.5859H115.859V53.0335C115.859 53.0335 119.029 53.2232 119.029 54.7196C119.029 54.7709 119.033 54.8181 119.043 54.866V65.2068C119.043 65.2068 117.411 65.2293 114.902 65.2293C112.391 65.2293 110.937 65.2068 110.937 65.2068V54.8407C110.942 54.8035 110.95 54.7607 110.95 54.7196C110.95 53.4929 114.117 53.0785 114.117 53.0785V52.5859H111.775C110.577 52.5859 108.501 52.9057 108.501 52.9057C108.501 52.9057 106.694 52.5859 105.314 52.5859H103.172V53.0335C103.172 53.0335 106.341 53.2232 106.341 54.7196C106.341 54.7709 106.347 54.8181 106.356 54.866V65.3121L106.344 66.1942H91.3752V66.5669H139.223V66.1942H123.633Z" fill="#7A0627"/>
<path d="M91.376 74.6678H106.364L106.354 75.5888V86.0382C106.347 86.0844 106.341 86.1328 106.341 86.1823C106.341 87.6827 103.173 87.8701 103.173 87.8701V88.3177H105.315C106.693 88.3177 108.501 87.9968 108.501 87.9968C108.501 87.9968 110.577 88.3177 111.777 88.3177H114.117V87.8251C114.117 87.8251 110.95 87.4091 110.95 86.1823C110.95 86.1412 110.942 86.1001 110.937 86.0635V75.6946C110.937 75.6946 112.391 75.6738 114.902 75.6738C117.411 75.6738 119.042 75.6946 119.042 75.6946V86.0382C119.033 86.0844 119.029 86.1328 119.029 86.1823C119.029 87.6827 115.857 87.8701 115.857 87.8701V88.3177H118.001C119.381 88.3177 121.294 87.9968 121.294 87.9968C121.294 87.9968 123.263 88.3177 124.463 88.3177H126.807V87.8251C126.807 87.8251 123.635 87.4091 123.635 86.1823C123.635 86.1412 123.631 86.1001 123.622 86.0635V75.5894L123.633 74.6683H139.224V74.2939H91.376V74.6678Z" fill="#7A0627"/>
<path fill-rule="evenodd" clip-rule="evenodd" d="M115.681 48.1047C115.957 47.817 116.228 47.5287 116.505 47.2416C116.703 46.9173 116.614 46.0442 116.79 45.8026C116.712 45.4035 116.288 45.3416 116.092 45.0646C115.909 44.8101 115.673 44.59 115.519 44.3254C115.372 44.0749 115.282 43.8429 115.107 43.6267C115.063 43.5952 115.069 43.6025 114.986 43.5879C114.818 43.8891 114.823 44.3136 114.655 44.6559C114.447 45.0764 113.862 45.2357 113.71 45.7221C113.282 46.3926 113.995 47.7308 114.367 48.0236C114.531 48.1491 114.709 48.1745 114.819 48.3518C114.962 48.5776 114.725 49.0989 115.024 49.2531C115.069 49.2886 115.035 49.2695 115.106 49.2959C115.214 48.9964 115.221 48.5562 115.395 48.3107C115.473 48.1199 115.529 48.2054 115.681 48.1047ZM115.766 45.31H115.849V45.4756H115.766V45.31ZM115.681 45.5566H115.765C115.746 45.6422 115.753 45.6354 115.723 45.6788V45.7216H115.641C115.655 45.627 115.661 45.6197 115.681 45.5566ZM115.519 45.7216C115.485 45.6732 115.485 45.6535 115.478 45.5566C115.509 45.6062 115.509 45.627 115.519 45.7216ZM115.437 45.3511V45.5161H115.396C115.373 45.4502 115.359 45.4181 115.353 45.31C115.38 45.3236 115.408 45.3399 115.437 45.3511ZM114.655 44.9419C114.799 44.9773 114.767 44.9993 114.861 45.0651C114.841 45.4891 114.57 45.4604 114.411 45.7221H114.286C114.425 45.4598 114.643 45.3455 114.655 44.9419ZM114.081 45.7638H114.164V45.846H114.081V45.7638ZM115.19 48.2696C115.147 48.1942 115.136 48.1992 115.107 48.1047C115.077 48.0394 115.144 47.9211 115.231 47.8564V47.7742C115.096 47.8114 115.055 47.8395 114.986 47.9386C114.87 47.9211 114.628 47.88 114.532 47.817C114.479 47.7376 114.481 47.5681 114.367 47.4471C113.958 46.9956 113.874 46.7755 113.956 46.0504C114.103 46.105 114.144 46.1883 114.286 46.2553C114.365 46.0577 114.527 45.8618 114.697 45.6383C114.709 45.627 114.723 45.6129 114.736 45.6V45.6383H114.819C114.81 45.7835 114.808 45.8133 114.736 45.8877V45.9271C114.987 45.8477 115.077 45.6033 115.189 45.3928C115.265 45.4474 115.26 45.475 115.353 45.5161C115.326 45.8938 114.495 46.8841 114.245 47.0772V47.1583C114.681 47.004 114.951 46.3172 115.27 46.0098V45.9693C115.431 46.0695 115.26 46.3043 115.146 46.3797V46.4619C115.347 46.3938 115.501 46.1275 115.559 45.9276H115.641C115.625 46.074 115.638 46.0627 115.559 46.1326V46.338C115.573 46.3251 115.589 46.3104 115.601 46.2958C115.76 46.1815 115.76 45.9496 115.885 45.8026V45.7638H115.97C115.925 46.0695 115.817 46.4011 115.641 46.5846V46.7068C115.806 46.5959 116.05 46.3195 116.132 46.1326H116.213C116.209 46.3251 116.184 46.4073 116.091 46.5013V46.7473H116.175C116.213 46.6584 116.241 46.6319 116.256 46.5013H116.338C116.351 46.5165 116.368 46.5283 116.38 46.5424C116.303 47.0451 115.985 47.6126 115.641 47.8558C115.466 47.9825 115.313 48.0534 115.229 48.269H115.19V48.2696ZM115.147 45.5566C115.125 45.6231 115.113 45.6557 115.107 45.7632C115.163 45.7508 115.218 45.734 115.27 45.7216C115.244 45.5729 115.277 45.6079 115.147 45.5566ZM115.065 45.8454C115.094 45.7835 115.119 45.8263 115.065 45.7632C114.995 45.9152 114.918 46.0059 114.781 46.092V46.2131H114.861C114.942 46.0926 115.024 46.0177 115.065 45.8454ZM114.577 46.1731H114.491C114.534 46.2074 114.503 46.1877 114.577 46.2131V46.1731ZM114.367 46.3791H114.411C114.354 46.2789 114.429 46.3493 114.326 46.2958C114.254 46.387 114.192 46.4467 114.081 46.5013C114.066 46.5424 114.053 46.5841 114.039 46.6257H114.081V46.6668C114.227 46.6173 114.321 46.5283 114.367 46.3791ZM115.56 46.4619C115.544 46.3752 115.551 46.3825 115.519 46.338C115.359 46.5734 114.866 47.2439 114.655 47.406V47.4465C115.125 47.3531 115.219 46.7028 115.56 46.4619ZM114.45 46.6668C114.424 46.5953 114.443 46.6274 114.411 46.5846C114.326 46.6527 114.245 46.7209 114.164 46.789V46.8729C114.355 46.8329 114.331 46.7597 114.45 46.6668ZM115.971 46.7062C115.932 46.5734 115.993 46.6432 115.886 46.5841C115.834 46.6724 115.76 46.8408 115.681 46.9128V47.0361H115.723C115.788 46.9095 115.872 46.7997 115.971 46.7062ZM115.353 46.9956V47.0778C115.514 47.0226 115.538 46.9309 115.642 46.8312C115.605 46.6989 115.665 46.7693 115.56 46.7068C115.504 46.8188 115.449 46.9213 115.353 46.9956ZM115.723 47.2416V47.3244C115.878 47.2439 115.936 47.1459 116.051 47.0361C116.016 46.9033 116.074 46.9725 115.971 46.9128C115.923 47.0468 115.818 47.1544 115.723 47.2416ZM114.577 47.1178C114.499 47.2287 114.416 47.2619 114.367 47.4066C114.536 47.3773 114.57 47.3486 114.615 47.2005H114.655C114.602 47.0997 114.675 47.1718 114.577 47.1178ZM115.314 47.1583H115.231C115.19 47.2135 115.147 47.2681 115.107 47.3244C115.18 47.3801 115.296 47.1836 115.314 47.1583ZM115.601 47.2V47.1583C115.356 47.2101 115.257 47.4116 115.065 47.5282V47.6526C115.353 47.5952 115.399 47.3424 115.601 47.2ZM115.437 47.5282V47.6098C115.478 47.598 115.519 47.5839 115.56 47.5704C115.573 47.5422 115.589 47.5158 115.601 47.4888C115.56 47.4747 115.519 47.4595 115.478 47.4471C115.451 47.5175 115.467 47.4876 115.437 47.5282ZM114.781 47.7348H114.82C114.795 47.6627 114.81 47.6948 114.781 47.6526V47.7348ZM113.956 48.4728C113.82 48.4334 113.683 48.3907 113.547 48.3512C112.991 48.0895 112.389 47.6796 111.575 47.692C111.497 47.7517 111.389 47.7235 111.289 47.7742C110.73 48.0669 110.223 48.6367 109.359 48.6367C109.344 48.6507 109.332 48.6648 109.315 48.68C109.361 49.2813 110.153 49.1687 110.631 49.3353C110.988 49.4592 111.661 50.1055 112.19 49.9507C112.391 49.8921 112.783 49.7863 112.972 49.6647C113.45 49.3579 113.583 48.7087 114.246 49.3353C114.464 49.3151 114.467 49.2458 114.532 49.0904C114.341 48.903 114.183 48.6192 113.956 48.4728ZM112.849 48.4334C112.825 48.5607 112.842 48.532 112.767 48.5973V48.6367C112.918 48.613 113.01 48.5573 113.097 48.4728H113.219V48.555C112.959 48.6817 112.651 48.9384 112.354 48.9677C112.371 48.7943 112.398 48.7296 112.354 48.5967C112.492 48.5376 112.526 48.5686 112.56 48.3901C112.659 48.403 112.754 48.4194 112.849 48.4334ZM112.273 48.2696C112.354 48.2561 112.438 48.2415 112.521 48.2285V48.3907H112.273V48.2696ZM111.739 48.1047C111.898 48.108 111.948 48.1142 112.027 48.1857H112.11C112.082 48.2139 112.053 48.242 112.027 48.2696C112.081 48.3963 112.114 48.3828 112.233 48.4334C112.164 48.5145 112.097 48.5973 112.027 48.68C111.742 48.6682 111.769 48.5854 111.535 48.555C111.617 48.2949 111.818 48.331 111.739 48.1047ZM111.247 49.2526C111.162 49.2385 111.168 49.2441 111.125 49.2126H111.04V49.1721C111.121 49.1265 111.223 49.0719 111.289 49.0065C111.359 49.033 111.327 49.0161 111.371 49.0488H111.411C111.357 49.1163 111.299 49.185 111.247 49.2526ZM111.616 49.2126C111.573 49.2447 111.578 49.2385 111.493 49.2526V49.1298H111.661C111.63 49.2025 111.649 49.1715 111.616 49.2126ZM111.739 49.006C111.864 48.9412 112.001 48.85 112.11 48.7622C112.141 48.8123 112.114 48.7999 112.11 48.9238C112.036 48.9609 111.959 48.9947 111.906 49.0482H111.739V49.006H111.739ZM112.48 49.5003C112.437 49.5341 112.47 49.5138 112.396 49.5414C112.368 49.4896 112.351 49.4564 112.314 49.417V49.3775C112.409 49.3663 112.434 49.3697 112.48 49.3353H112.644C112.597 49.4603 112.605 49.4586 112.48 49.5003ZM112.849 49.2126C112.836 49.2278 112.824 49.2413 112.808 49.2526H112.727V49.1715H112.848V49.2126H112.849ZM112.931 49.091C113.001 49.1163 112.97 49.0989 113.013 49.1298C112.944 49.1028 112.974 49.1214 112.931 49.091ZM112.315 49.3353C112.201 49.3821 111.916 49.3303 111.864 49.2954C111.85 49.2818 111.835 49.2689 111.823 49.2526C111.889 49.198 111.87 49.2284 111.905 49.1298C112.035 49.1101 112.201 49.1884 112.396 49.1298C112.56 49.0809 113.294 48.68 113.382 48.555H113.466C113.405 48.7059 112.496 49.261 112.315 49.3353ZM120.283 48.5139C119.899 48.0337 118.894 47.6683 118.106 47.692C117.85 47.8727 117.26 47.9791 116.957 48.1441C116.83 48.2144 116.637 48.3355 116.506 48.4334C116.381 48.5708 116.258 48.7059 116.133 48.8422C116.021 48.9092 115.925 48.8709 115.805 48.9244C115.656 48.9959 115.489 49.1343 115.314 49.2126C115.337 49.3432 115.35 49.3342 115.397 49.4175C115.667 49.4778 116.002 49.4012 116.34 49.5003C116.727 49.6134 117.602 50.0982 118.149 49.9507C119.08 49.7035 119.556 48.9626 120.654 48.8849C120.664 48.8703 120.681 48.8551 120.695 48.8416C120.636 48.5854 120.414 48.68 120.283 48.5139ZM116.669 48.8016V48.8416H116.586C116.623 48.7538 116.622 48.7836 116.669 48.7206H116.71C116.727 48.8005 116.69 48.774 116.669 48.8016ZM119.051 48.228H119.133C119.146 48.2409 119.159 48.2555 119.175 48.269C119.113 48.3698 119.187 48.3163 119.051 48.3512V48.228ZM117.899 48.1441C118.059 48.1204 118.372 48.0455 118.516 48.1441C118.634 48.1486 118.692 48.1615 118.764 48.1852V48.228C118.652 48.2522 118.548 48.3287 118.475 48.3512C118.171 48.4334 118.103 48.166 117.859 48.3901H117.776C117.824 48.4244 117.847 48.4244 117.94 48.4329V48.5139C117.808 48.5849 117.754 48.6541 117.573 48.68C117.606 48.3997 117.767 48.318 117.899 48.1441ZM118.188 48.3907C118.117 48.434 118.094 48.4351 118.023 48.3907H118.188ZM117.982 48.7206C117.911 48.6935 117.941 48.7121 117.899 48.68C117.971 48.7059 117.94 48.6862 117.982 48.7206ZM117.611 48.8849C117.543 48.9204 117.56 48.9198 117.49 48.8849H117.611ZM117.408 48.4728H117.531C117.447 48.5708 117.424 48.5314 117.408 48.7206H117.161C117.241 48.6367 117.325 48.5556 117.408 48.4728ZM117.202 49.1298C117.089 49.1028 117.133 49.1557 117.121 49.0482H117.202V49.1298ZM118.066 49.5813C118.053 49.596 118.039 49.6095 118.023 49.6241H117.94V49.5419H118.066V49.5813ZM118.558 49.5003V49.5414C118.457 49.4862 118.53 49.5611 118.475 49.4598H118.434C118.472 49.3719 118.469 49.3973 118.516 49.3348H118.68C118.643 49.4586 118.665 49.4474 118.558 49.5003ZM119.133 48.9244C119.078 48.9384 119.022 48.9536 118.969 48.9683V49.091H119.091C119.017 49.1495 118.863 49.2835 118.719 49.2526C118.687 49.1844 118.683 49.1332 118.558 49.1715C118.442 49.2058 118.32 49.3128 118.148 49.3353V49.212C117.946 49.2436 117.733 49.3427 117.611 49.4598H117.446V49.417C117.664 49.3122 117.829 49.1681 118.022 49.0482V49.006C117.767 49.0662 117.521 49.1738 117.366 49.3353H117.284V49.2526C117.561 49.091 117.923 48.9412 118.148 48.7211H118.228C118.194 48.6913 118.137 48.6665 118.106 48.6372C118.09 48.6243 118.076 48.6102 118.067 48.5978C118.164 48.5494 118.306 48.4971 118.394 48.434H118.475C118.432 48.5297 118.397 48.5466 118.311 48.5978C118.367 48.6434 118.432 48.6614 118.517 48.6806V48.8022C118.6 48.7875 118.68 48.7752 118.764 48.7633C118.778 48.7752 118.791 48.7875 118.803 48.8022C118.764 48.8422 118.72 48.8855 118.68 48.9249H118.639V48.9688C118.803 48.939 118.969 48.9114 119.132 48.8861V48.9244H119.133ZM119.296 48.8016C119.046 48.7538 118.905 48.6429 118.6 48.6367C118.647 48.546 118.658 48.5759 118.719 48.5139H118.764C118.727 48.4267 118.727 48.456 118.68 48.3901C118.803 48.4087 118.82 48.4126 118.885 48.4723H119.213C119.157 48.5517 119.162 48.5595 119.051 48.5967C119.116 48.6744 119.176 48.6958 119.297 48.7206V48.8016H119.296ZM119.503 48.9683C119.471 48.9227 119.476 48.9305 119.461 48.8416H119.582C119.544 48.9322 119.545 48.903 119.503 48.9683ZM118.228 48.8416C118.181 48.9063 118.182 48.8759 118.148 48.9683H118.066C118.165 49.0291 118.236 48.9959 118.311 48.9244H118.352C118.292 48.8247 118.363 48.8759 118.228 48.8416ZM118.393 49.091C118.514 49.0719 118.532 49.0707 118.6 49.0065H118.639V48.9688H118.434C118.42 49.006 118.407 49.0488 118.393 49.091Z" fill="#7A0627"/>
<path fill-rule="evenodd" clip-rule="evenodd" d="M114.532 48.5518C114.558 48.5355 114.389 48.2089 114.321 48.1284C114.17 47.9522 113.952 47.8498 113.768 47.7034C113.528 47.5154 113.37 47.181 113.175 46.9411C113.162 46.9254 113.147 46.9124 113.132 46.8972C113.102 46.9828 113.118 47.0273 113.089 47.0667C113.076 47.0824 113.061 47.0948 113.046 47.11V47.0667H112.962C113.029 46.9265 113.097 46.7734 113.132 46.6016C113.03 46.4789 113.017 46.3038 112.92 46.1772C112.864 46.104 112.763 46.0927 112.707 46.0071C112.509 45.9931 112.31 45.9773 112.115 45.9644C111.945 46.1141 111.735 46.1012 111.645 46.3455C111.341 46.7841 111.786 47.1736 111.985 47.4506C112.107 47.4472 112.217 47.4472 112.283 47.4945C112.59 47.4872 112.799 47.3408 112.921 47.1539C112.969 47.2339 112.903 47.3116 112.921 47.3667C112.961 47.4951 113.318 47.5829 113.43 47.6623C113.813 47.9382 114.122 48.3581 114.532 48.5952V48.5518H114.532ZM112.196 46.8972C112.172 46.9721 112.187 46.9406 112.152 46.9811C112.201 47.0149 112.195 47.0081 112.282 47.0233V47.0661C112.209 47.092 112.243 47.0745 112.196 47.1094C112.005 47.0762 111.968 47.0087 111.773 46.9805C111.805 46.7829 111.734 46.5088 111.858 46.3444C111.901 46.3027 111.945 46.2599 111.985 46.216H112.114V46.2594C112.033 46.2943 112.002 46.319 111.901 46.3438C111.886 46.3866 111.87 46.4288 111.858 46.4722C111.87 46.4857 111.886 46.4997 111.901 46.5149C112.093 46.4817 112.196 46.4085 112.368 46.3438C112.382 46.3562 112.396 46.3731 112.41 46.3866C112.289 46.5149 112.131 46.5741 111.945 46.6433V46.7261C112.043 46.8206 112.017 46.8651 112.196 46.8972ZM112.325 46.2171C112.432 46.2487 112.472 46.2785 112.539 46.3455C112.434 46.31 112.391 46.2853 112.325 46.2171ZM118.354 46.7711C118.329 46.5099 118.207 46.4677 118.101 46.3038C117.88 46.2549 117.679 46.2109 117.379 46.2177C117.24 46.3956 117.032 46.489 116.953 46.7283V47.0239C116.784 47.1658 116.614 47.3076 116.444 47.4506C116.349 47.5778 116.328 47.7518 116.232 47.8757C116.237 48.0384 116.228 48.0541 116.315 48.1284C116.502 48.2574 116.898 47.4236 117.039 47.2789C117.075 47.2418 117.374 47.4979 117.462 47.5773C117.658 47.5711 117.915 47.5474 118.016 47.4945C118.189 47.4337 118.306 47.2902 118.354 47.11C118.411 47.0301 118.412 46.851 118.354 46.7711ZM117.21 47.11H117.122V47.0239C117.152 47.0391 117.18 47.0526 117.21 47.0667V47.11ZM118.016 46.9411C117.917 46.891 117.936 46.9011 117.886 46.8133C117.779 46.8657 117.795 46.8555 117.759 46.9811C117.643 46.9811 117.564 46.9811 117.504 46.9411H117.422V46.7705C117.55 46.7435 117.523 46.7604 117.591 46.685H117.631C117.575 46.5577 117.537 46.5988 117.504 46.4305C117.462 46.444 117.422 46.4592 117.38 46.4733V46.3883C117.501 46.386 117.611 46.386 117.676 46.4305C117.917 46.4587 117.879 46.533 118.016 46.645C118.068 46.645 118.037 46.6703 118.101 46.6016H118.14C118.101 46.7131 118.053 46.8268 118.016 46.9411ZM115.042 49.8269C115.026 49.7425 115.014 49.658 114.999 49.5725C114.89 49.5809 114.856 49.5899 114.788 49.6153C114.811 49.7464 114.795 49.7188 114.872 49.7858C114.781 50.0274 114.515 50.1766 114.406 50.4209H114.364V50.9743C114.477 51.2614 115.035 51.4585 115.38 51.2693C115.546 51.1798 115.629 50.9276 115.766 50.8031C115.747 50.2058 115.427 50.051 115.042 49.8269ZM115.212 50.167C115.349 50.2222 115.358 50.3038 115.467 50.3798V50.4648C115.342 50.3865 115.247 50.3477 115.172 50.2942C115.136 50.3359 115.107 50.4108 115.082 50.4648C115.042 50.4777 114.999 50.4924 114.958 50.5087C114.943 50.4924 114.927 50.4777 114.913 50.4648C114.968 50.2711 115.106 50.3038 115.212 50.167ZM115.379 51.1021C115.253 51.1331 115.124 51.1843 115.042 51.1443C114.925 51.1443 114.849 51.1409 114.787 51.1021H114.744C114.826 51.0334 114.913 51.0075 114.999 51.0593C115.19 51.0565 115.23 51.0311 115.338 50.9749C115.353 50.8465 115.364 50.7193 115.379 50.5915C115.48 50.6241 115.477 50.6371 115.551 50.6759C115.499 50.8561 115.413 50.9084 115.379 51.1021Z" fill="#9D9A7E"/>
<path d="M202.401 124.417H193.459C193.095 124.417 192.799 124.121 192.799 123.756C192.799 123.392 193.094 123.096 193.459 123.096H201.517L196.374 105.727C196.31 105.509 196.362 105.272 196.513 105.102C196.664 104.931 196.893 104.852 197.117 104.889L232.922 110.922L245.728 86.2778C245.882 85.9811 246.234 85.8454 246.546 85.9636L261.775 91.6694L278.215 50.04H200.653C200.448 50.04 200.255 49.9455 200.13 49.7833C200.005 49.6217 199.962 49.4112 200.014 49.213L208.972 14.8207H163.07C162.969 14.8207 162.87 14.7976 162.78 14.7532L146.739 6.90132L144.546 16.3638C144.503 16.5502 144.382 16.7078 144.214 16.7979C144.045 16.8874 143.847 16.9004 143.668 16.8322L103.292 1.44945L91.0208 16.9189C90.839 17.1481 90.5276 17.2308 90.2563 17.121L76.2528 11.471L66.7711 28.8738L85.7226 44.7469C85.9163 44.9091 86.0007 45.1675 85.9394 45.4129C85.878 45.6584 85.6827 45.847 85.4355 45.8993L56.3285 52.0803C55.9788 52.1512 55.6315 51.935 55.5487 51.586L52.7412 39.7325H1.38916L6.54152 92.4058L32.0151 91.8552C32.3642 91.8608 32.6519 92.1068 32.6862 92.4503L34.2541 108.173L116.102 110.994C116.454 111.005 116.735 111.293 116.739 111.645L116.89 123.097H124.495C124.86 123.097 125.155 123.392 125.155 123.757C125.155 124.122 124.86 124.417 124.495 124.417H116.238C115.877 124.417 115.582 124.127 115.578 123.765L115.427 112.292L33.6315 109.473C33.301 109.462 33.0302 109.208 32.997 108.879L31.4319 93.1895L5.95715 93.7401C5.61993 93.7462 5.31931 93.4878 5.28609 93.1438L0.00311045 39.1368C-0.0149048 38.9511 0.0458991 38.767 0.17088 38.629C0.296424 38.4911 0.473755 38.4123 0.660101 38.4123H53.263C53.5693 38.4123 53.835 38.6229 53.906 38.9201L56.6854 50.6542L83.8355 44.8894L65.5084 29.5392C65.2674 29.3371 65.2021 28.9931 65.3524 28.7173L75.3745 10.3231C75.5356 10.0287 75.8908 9.90199 76.2016 10.0264L90.2923 15.7119L102.557 0.250303C102.736 0.0251121 103.04 -0.0593324 103.31 0.0431295L143.43 15.3285L145.639 5.79394C145.684 5.59746 145.816 5.43308 145.998 5.34638C146.18 5.26024 146.391 5.26137 146.573 5.34975L163.222 13.5H209.825C210.03 13.5 210.222 13.5946 210.348 13.7567C210.473 13.9183 210.516 14.1294 210.464 14.327L201.506 48.7193H279.185C279.404 48.7193 279.608 48.8274 279.731 49.0087C279.854 49.1888 279.88 49.4191 279.8 49.6229L262.765 92.7588C262.633 93.0943 262.258 93.2621 261.919 93.1348L246.63 87.4066L233.871 111.958C233.74 112.213 233.455 112.35 233.176 112.305L197.941 106.368L203.034 123.569C203.093 123.769 203.055 123.985 202.93 124.152C202.806 124.319 202.61 124.417 202.401 124.417Z" fill="#6AB354"/>
<path d="M153.608 51.396H152.738V85.3424H153.608V51.396Z" fill="#6AB354"/>
<path d="M266.369 153H9.46164C9.09684 153 8.80127 152.705 8.80127 152.34C8.80127 151.975 9.09684 151.68 9.46164 151.68H266.369C266.733 151.68 267.029 151.975 267.029 152.34C267.029 152.705 266.734 153 266.369 153Z" fill="#6AB354"/>
<path d="M266.369 145.054H159.307C158.943 145.054 158.646 144.758 158.646 144.394V136.292C158.646 135.927 158.942 135.631 159.307 135.631C159.672 135.631 159.968 135.927 159.968 136.292V143.733H266.369C266.734 143.733 267.03 144.029 267.03 144.394C267.03 144.758 266.734 145.054 266.369 145.054Z" fill="#6AB354"/>
<path d="M150.282 145.054H94.8457C94.4809 145.054 94.1853 144.758 94.1853 144.394C94.1853 144.029 94.4809 143.733 94.8457 143.733H149.622V136.292C149.622 135.927 149.917 135.631 150.282 135.631C150.647 135.631 150.942 135.927 150.942 136.292V144.394C150.942 144.758 150.646 145.054 150.282 145.054Z" fill="#6AB354"/>
<path d="M60.6598 145.054H9.46262C9.09781 145.054 8.80225 144.758 8.80225 144.393C8.80225 144.028 9.09781 143.733 9.46262 143.733H60.6598C61.0246 143.733 61.3202 144.028 61.3202 144.393C61.3202 144.758 61.0246 145.054 60.6598 145.054Z" fill="#6AB354"/>
<path d="M158.319 129.931H144.833C144.468 129.931 144.172 129.636 144.172 129.271V113.44C144.172 113.277 144.233 113.12 144.342 112.999L151.083 105.501C151.334 105.223 151.815 105.223 152.066 105.501L158.81 112.999C158.918 113.12 158.979 113.277 158.979 113.44V129.271C158.979 129.636 158.684 129.931 158.319 129.931ZM145.494 128.611H157.658V113.694L151.574 106.93L145.493 113.694V128.611H145.494Z" fill="#6AB354"/>
<path d="M150.024 120.4H147.312C146.947 120.4 146.651 120.104 146.651 119.74V115.4C146.651 115.035 146.947 114.739 147.312 114.739H150.024C150.388 114.739 150.685 115.035 150.685 115.4V119.74C150.685 120.104 150.388 120.4 150.024 120.4ZM147.972 119.079H149.364V116.06H147.972V119.079Z" fill="#6AB354"/>
<path d="M155.832 120.4H153.12C152.756 120.4 152.46 120.104 152.46 119.74V115.4C152.46 115.035 152.756 114.739 153.12 114.739H155.832C156.196 114.739 156.492 115.035 156.492 115.4V119.74C156.492 120.104 156.196 120.4 155.832 120.4ZM153.781 119.079H155.172V116.06H153.781V119.079Z" fill="#6AB354"/>
<path d="M160.384 129.932C160.02 129.932 159.723 129.636 159.723 129.271V112.479C159.723 112.115 160.019 111.819 160.384 111.819C160.749 111.819 161.044 112.114 161.044 112.479V129.271C161.044 129.636 160.749 129.932 160.384 129.932Z" fill="#6AB354"/>
<path d="M160.384 113.14C160.2 113.14 160.017 113.064 159.886 112.914L153.45 105.551C153.21 105.276 153.238 104.859 153.513 104.618C153.787 104.378 154.204 104.407 154.445 104.681L160.881 112.045C161.121 112.32 161.093 112.737 160.818 112.977C160.693 113.087 160.539 113.14 160.384 113.14Z" fill="#6AB354"/>
<path d="M142.764 129.932H129.745C129.38 129.932 129.084 129.637 129.084 129.272V118.061C129.084 117.697 129.38 117.4 129.745 117.4H142.764C143.129 117.4 143.425 117.696 143.425 118.061V129.272C143.425 129.637 143.129 129.932 142.764 129.932ZM130.405 128.612H142.104V118.722H130.405V128.612Z" fill="#6AB354"/>
<path d="M178.003 129.932H162.71C162.346 129.932 162.05 129.637 162.05 129.272V118.061C162.05 117.697 162.345 117.4 162.71 117.4H178.003C178.367 117.4 178.664 117.696 178.664 118.061V129.272C178.664 129.637 178.368 129.932 178.003 129.932ZM163.37 128.612H177.342V118.722H163.37V128.612Z" fill="#6AB354"/>
<path d="M132.123 116.821C131.758 116.821 131.463 116.525 131.463 116.16V110.413C131.463 110.049 131.758 109.752 132.123 109.752C132.488 109.752 132.783 110.048 132.783 110.413V116.16C132.783 116.525 132.488 116.821 132.123 116.821Z" fill="#6AB354"/>
<path d="M144.504 111.073H132.123C131.758 111.073 131.463 110.778 131.463 110.413C131.463 110.048 131.758 109.752 132.123 109.752H144.504C144.869 109.752 145.164 110.048 145.164 110.413C145.164 110.778 144.869 111.073 144.504 111.073Z" fill="#6AB354"/>
<path d="M184.453 129.932H180.425C180.061 129.932 179.765 129.636 179.765 129.271V111.927C179.765 111.563 180.06 111.267 180.425 111.267H184.453C184.817 111.267 185.113 111.562 185.113 111.927V129.271C185.113 129.636 184.818 129.932 184.453 129.932ZM181.086 128.611H183.793V112.588H181.086V128.611Z" fill="#6AB354"/>
<path d="M188.689 129.932H184.453C184.089 129.932 183.793 129.637 183.793 129.272V114.201C183.793 113.837 184.088 113.541 184.453 113.541H188.689C189.053 113.541 189.349 113.836 189.349 114.201V129.272C189.349 129.637 189.053 129.932 188.689 129.932ZM185.113 128.612H188.029V114.862H185.113V128.612Z" fill="#6AB354"/>
<path d="M188.653 116.82H162.71C162.346 116.82 162.05 116.525 162.05 116.16C162.05 115.795 162.345 115.5 162.71 115.5H188.653C189.017 115.5 189.313 115.795 189.313 116.16C189.313 116.525 189.017 116.82 188.653 116.82Z" fill="#6AB354"/>
<path d="M188.653 122.26H178.492C178.128 122.26 177.832 121.965 177.832 121.6C177.832 121.235 178.127 120.939 178.492 120.939H188.653C189.017 120.939 189.313 121.235 189.313 121.6C189.313 121.965 189.017 122.26 188.653 122.26Z" fill="#6AB354"/>
<path d="M169.44 121.29H164.48V122.529H169.44V121.29Z" fill="#6AB354"/>
<path d="M176.234 121.29H171.273V122.529H176.234V121.29Z" fill="#6AB354"/>
<path d="M142.765 124.172H132.897C132.635 124.172 132.399 124.018 132.293 123.779C132.187 123.54 132.232 123.261 132.408 123.068L134.423 120.846C134.548 120.708 134.726 120.629 134.913 120.629H142.766C143.13 120.629 143.426 120.925 143.426 121.29V123.511C143.425 123.876 143.129 124.172 142.765 124.172ZM134.387 122.85H142.105V121.95H135.205L134.387 122.85Z" fill="#6AB354"/>
<path d="M134.859 129.932C134.495 129.932 134.199 129.636 134.199 129.271V123.666C134.199 123.301 134.495 123.005 134.859 123.005C135.224 123.005 135.52 123.301 135.52 123.666V129.271C135.52 129.636 135.224 129.932 134.859 129.932Z" fill="#6AB354"/>
<path d="M188.253 132.573H129.744C129.379 132.573 129.084 132.277 129.084 131.912C129.084 131.548 129.379 131.252 129.744 131.252H188.253C188.617 131.252 188.914 131.548 188.914 131.912C188.914 132.277 188.618 132.573 188.253 132.573Z" fill="#6AB354"/>
<path d="M90.0175 147.062H65.7307C65.3659 147.062 65.0703 146.766 65.0703 146.401V142.66C65.0703 142.296 65.3659 142 65.7307 142H90.0175C90.3824 142 90.6779 142.295 90.6779 142.66V146.401C90.6774 146.766 90.3824 147.062 90.0175 147.062ZM66.3911 145.741H89.3572V143.32H66.3911V145.741Z" fill="#6AB354"/>
<path d="M90.0174 143.321H81.2124C80.8476 143.321 80.552 143.025 80.552 142.66V132.534C80.552 132.17 80.8476 131.874 81.2124 131.874H87.3759C87.641 131.874 87.8803 132.032 87.9839 132.277L90.6254 138.513C90.6597 138.595 90.6777 138.683 90.6777 138.771V142.66C90.6772 143.024 90.3822 143.321 90.0174 143.321ZM81.8728 142H89.357V138.906L86.9384 133.195H81.8728V142Z" fill="#6AB354"/>
<path d="M90.0175 140.76H84.3669C84.0021 140.76 83.7065 140.465 83.7065 140.1V135.322C83.7065 134.958 84.0021 134.662 84.3669 134.662H88.5594C88.9237 134.662 89.2198 134.958 89.2198 135.322C89.2198 135.687 88.9242 135.983 88.5594 135.983H85.0279V139.44H90.0175C90.3823 139.44 90.6779 139.736 90.6779 140.1C90.6779 140.465 90.3823 140.76 90.0175 140.76Z" fill="#6AB354"/>
<path d="M71.9379 149.756C73.6095 149.756 74.9645 148.401 74.9645 146.73C74.9645 145.058 73.6095 143.703 71.9379 143.703C70.2664 143.703 68.9114 145.058 68.9114 146.73C68.9114 148.401 70.2664 149.756 71.9379 149.756Z" fill="white"/>
<path d="M71.9379 150.416C69.905 150.416 68.251 148.762 68.251 146.729C68.251 144.695 69.905 143.042 71.9379 143.042C73.9708 143.042 75.6249 144.696 75.6249 146.729C75.6249 148.762 73.9708 150.416 71.9379 150.416ZM71.9379 144.363C70.6329 144.363 69.5717 145.425 69.5717 146.729C69.5717 148.034 70.6329 149.095 71.9379 149.095C73.2423 149.095 74.3041 148.034 74.3041 146.729C74.3041 145.425 73.2423 144.363 71.9379 144.363Z" fill="#6AB354"/>
<path d="M71.9378 148.435C70.997 148.435 70.2319 147.67 70.2319 146.729C70.2319 145.789 70.997 145.023 71.9378 145.023C72.8785 145.023 73.6436 145.789 73.6436 146.729C73.6436 147.67 72.8785 148.435 71.9378 148.435ZM71.9378 146.344C71.7255 146.344 71.5521 146.517 71.5521 146.729C71.5521 146.942 71.7249 147.115 71.9378 147.115C72.15 147.115 72.3228 146.942 72.3228 146.729C72.3228 146.516 72.15 146.344 71.9378 146.344Z" fill="#6AB354"/>
<path d="M84.1118 149.428C85.7833 149.428 87.1383 148.073 87.1383 146.402C87.1383 144.73 85.7833 143.375 84.1118 143.375C82.4402 143.375 81.0852 144.73 81.0852 146.402C81.0852 148.073 82.4402 149.428 84.1118 149.428Z" fill="white"/>
<path d="M84.1117 150.089C82.0788 150.089 80.4248 148.435 80.4248 146.402C80.4248 144.369 82.0788 142.715 84.1117 142.715C86.1446 142.715 87.7987 144.369 87.7987 146.402C87.7987 148.435 86.1446 150.089 84.1117 150.089ZM84.1117 144.036C82.8073 144.036 81.7455 145.097 81.7455 146.402C81.7455 147.706 82.8073 148.768 84.1117 148.768C85.4167 148.768 86.4779 147.706 86.4779 146.402C86.4779 145.097 85.4167 144.036 84.1117 144.036Z" fill="#6AB354"/>
<path d="M84.1118 148.108C83.1711 148.108 82.406 147.343 82.406 146.402C82.406 145.461 83.1711 144.696 84.1118 144.696C85.0526 144.696 85.8176 145.461 85.8176 146.402C85.8176 147.343 85.0526 148.108 84.1118 148.108ZM84.1118 146.016C83.8996 146.016 83.7268 146.19 83.7268 146.402C83.7268 146.614 83.8996 146.788 84.1118 146.788C84.3241 146.788 84.4975 146.614 84.4975 146.402C84.4975 146.19 84.3241 146.016 84.1118 146.016Z" fill="#6AB354"/>
<path d="M81.0853 143.244H65.7307C65.3659 143.244 65.0703 142.948 65.0703 142.584V136.09C65.0703 135.725 65.3659 135.429 65.7307 135.429H81.0853C81.4502 135.429 81.7457 135.725 81.7457 136.09V142.584C81.7457 142.948 81.4502 143.244 81.0853 143.244ZM66.3911 141.923H80.425V136.75H66.3911V141.923Z" fill="#6AB354"/>
<path d="M32.417 149.586H32.4339L33.1967 146.568H34.2275V150.637H33.445V148.074L33.4281 148.072L32.6934 150.637H32.1653L31.4357 148.091L31.4194 148.094V150.638H30.634V146.568H31.6592L32.417 149.586Z" fill="#6AB354"/>
<path d="M37.2821 149.161C37.2821 149.64 37.1673 150.016 36.9387 150.288C36.709 150.559 36.4073 150.695 36.0334 150.695C35.6534 150.695 35.3483 150.56 35.118 150.288C34.8878 150.016 34.7729 149.64 34.7729 149.161V148.047C34.7729 147.571 34.8872 147.197 35.1169 146.922C35.3455 146.647 35.6495 146.51 36.0278 146.51C36.4044 146.51 36.7073 146.647 36.9376 146.922C37.1679 147.197 37.2827 147.571 37.2827 148.047V149.161H37.2821ZM36.4917 147.976C36.4917 147.708 36.4501 147.499 36.3667 147.35C36.284 147.201 36.1708 147.127 36.0273 147.127C35.8803 147.127 35.7666 147.202 35.685 147.35C35.6039 147.5 35.5639 147.708 35.5639 147.976V149.225C35.5639 149.499 35.6045 149.71 35.6867 149.858C35.7683 150.007 35.8843 150.081 36.0334 150.081C36.1764 150.081 36.289 150.007 36.3701 149.858C36.4512 149.71 36.4917 149.499 36.4917 149.225V147.976Z" fill="#6AB354"/>
<path d="M40.3202 147.184C39.9137 147.686 39.6389 148.156 39.4943 148.593C39.3496 149.031 39.2775 149.546 39.2775 150.138V150.636H38.4837V150.138C38.4837 149.566 38.5761 149.043 38.7596 148.569C38.9431 148.095 39.2094 147.634 39.5601 147.184H37.7158V146.567H40.3202V147.184Z" fill="#6AB354"/>
<path d="M244.612 149.586H244.628L245.391 146.568H246.422V150.637H245.64V148.074L245.623 148.072L244.888 150.637H244.36L243.63 148.091L243.614 148.094V150.638H242.829V146.568H243.854L244.612 149.586Z" fill="#6AB354"/>
<path d="M249.477 149.161C249.477 149.64 249.363 150.016 249.134 150.288C248.905 150.559 248.603 150.695 248.229 150.695C247.849 150.695 247.544 150.56 247.314 150.288C247.084 150.016 246.969 149.64 246.969 149.161V148.047C246.969 147.571 247.083 147.197 247.312 146.922C247.541 146.647 247.845 146.51 248.223 146.51C248.599 146.51 248.903 146.647 249.132 146.922C249.362 147.197 249.477 147.571 249.477 148.047V149.161ZM248.687 147.976C248.687 147.708 248.645 147.499 248.562 147.35C248.479 147.201 248.366 147.127 248.222 147.127C248.075 147.127 247.961 147.202 247.88 147.35C247.799 147.5 247.759 147.708 247.759 147.976V149.225C247.759 149.499 247.8 149.71 247.882 149.858C247.964 150.007 248.08 150.081 248.228 150.081C248.372 150.081 248.484 150.007 248.565 149.858C248.646 149.71 248.687 149.499 248.687 149.225V147.976Z" fill="#6AB354"/>
<path d="M252.516 147.184C252.109 147.686 251.834 148.156 251.689 148.593C251.545 149.031 251.472 149.546 251.472 150.138V150.636H250.679V150.138C250.679 149.566 250.771 149.043 250.954 148.569C251.138 148.095 251.405 147.634 251.755 147.184H249.911V146.567H252.516V147.184Z" fill="#6AB354"/>
</svg>
