<svg width="22" height="30" viewBox="0 0 22 30" fill="none" xmlns="http://www.w3.org/2000/svg">
<path d="M22 16.9244C22 15.2863 20.8324 13.9157 19.2861 13.6011C20.0553 11.434 18.2822 9.02633 15.9757 9.13749C17.9066 7.64433 19.1521 5.30459 19.1521 2.68002C19.1521 2.2091 18.771 1.8275 18.2996 1.8275C16.6878 1.8275 15.1843 2.29693 13.9174 3.10629C13.3953 2.00763 12.5795 1.0112 11.5161 0.180504C11.208 -0.0601681 10.7747 -0.0601681 10.4666 0.180504C9.40266 1.0107 8.58685 2.00763 8.06532 3.10629C6.79794 2.29693 5.29486 1.8275 3.6831 1.8275C3.21168 1.8275 2.82958 2.2096 2.82958 2.68002C2.82958 5.30509 4.07611 7.64433 6.00695 9.13749C3.70046 9.02633 1.92743 11.434 2.69658 13.6011C-0.900102 14.3866 -0.897621 19.4636 2.69658 20.2486C2.02369 22.1348 3.30943 24.2974 5.2363 24.6457C4.11432 28.169 8.53624 30.6854 10.9911 27.965C13.4489 30.6863 17.8674 28.166 16.7464 24.6457C18.6728 24.2979 19.959 22.1343 19.2861 20.2486C20.8324 19.9335 22 18.5629 22 16.9244ZM16.0695 10.8415C16.999 10.8415 17.7552 11.5978 17.7552 12.5272C17.6709 14.7608 14.4677 14.7603 14.3833 12.5272C14.3833 11.5978 15.1396 10.8415 16.0695 10.8415ZM9.3054 12.5272C9.3054 11.5973 10.0622 10.8415 10.9911 10.8415C13.2251 10.9259 13.2246 14.1291 10.9911 14.2134C10.0617 14.2134 9.3054 13.4567 9.3054 12.5272ZM10.1386 16.9244C10.1386 17.8538 9.38231 18.6101 8.45238 18.6101C6.21884 18.5257 6.21933 15.3225 8.45238 15.2382C9.38182 15.2387 10.1386 15.9949 10.1386 16.9244ZM13.5298 15.2387C14.4603 15.2387 15.216 15.9949 15.216 16.9244C15.1312 19.1584 11.9285 19.1574 11.8436 16.9244C11.8441 15.9949 12.6009 15.2387 13.5298 15.2387ZM17.3816 3.59756C16.9771 6.42459 14.7352 8.66607 11.9091 9.07C12.3136 6.24396 14.555 4.00199 17.3816 3.59756ZM10.9911 1.97438C11.6987 2.63884 12.2227 3.39956 12.5374 4.21437C11.9126 4.83764 11.3891 5.56164 10.9911 6.35909C10.5936 5.56164 10.0701 4.83764 9.44484 4.21437C9.75945 3.39906 10.284 2.63834 10.9911 1.97438ZM4.60112 3.59756C7.42716 4.00149 9.66963 6.24396 10.0731 9.07C7.24703 8.66607 5.00555 6.42459 4.60112 3.59756ZM5.91366 10.8415C6.84359 10.8415 7.59936 11.5978 7.59936 12.5272C7.5145 14.7608 4.31182 14.7603 4.22746 12.5272C4.22746 11.5978 4.98372 10.8415 5.91366 10.8415ZM3.37444 18.6105C2.4445 18.6105 1.68874 17.8543 1.68874 16.9248C1.7731 14.6908 4.97578 14.6918 5.06064 16.9248C5.06064 17.8538 4.30388 18.6105 3.37444 18.6105ZM5.91366 23.0082C4.98372 23.0082 4.22746 22.2519 4.22746 21.3225C4.31232 19.0889 7.515 19.0889 7.59936 21.3225C7.59936 22.2519 6.8431 23.0082 5.91366 23.0082ZM8.45188 27.4058C7.52244 27.4058 6.76618 26.6495 6.76618 25.7201C6.85153 23.486 10.0542 23.487 10.1386 25.7201C10.1386 26.649 9.38182 27.4058 8.45188 27.4058ZM10.9911 23.0082C10.0617 23.0082 9.3054 22.2519 9.3054 21.3225C9.38976 19.0884 12.5934 19.0894 12.6778 21.3225C12.6773 22.2519 11.921 23.0082 10.9911 23.0082ZM13.5298 27.4058C12.6004 27.4058 11.8441 26.6495 11.8441 25.7201C11.9285 23.4865 15.1317 23.4865 15.2165 25.7201C15.2165 26.649 14.4603 27.4058 13.5298 27.4058ZM16.0695 23.0082C15.1396 23.0082 14.3838 22.2519 14.3838 21.3225C14.4682 19.0884 17.6714 19.0894 17.7557 21.3225C17.7552 22.2519 16.999 23.0082 16.0695 23.0082ZM18.6083 18.6105C17.6783 18.6105 16.9221 17.8543 16.9221 16.9248C17.0069 14.6913 20.2096 14.6913 20.294 16.9248C20.294 17.8538 19.5377 18.6105 18.6083 18.6105Z" fill="#8FC67E"/>
</svg>
