<svg width="53" height="53" viewBox="0 0 53 53" fill="none" xmlns="http://www.w3.org/2000/svg">
<path d="M26.042 52.0377C40.4245 52.0377 52.0839 40.3887 52.0839 26.0189C52.0839 11.649 40.4245 0 26.042 0C11.6594 0 0 11.649 0 26.0189C0 40.3887 11.6594 52.0377 26.042 52.0377Z" fill="#6AB354"/>
<path d="M35.5633 34.8578H23.7416C23.4808 34.8578 23.2683 34.6484 23.2647 34.3875L23.249 33.1826L12.3949 32.8092C12.1562 32.8009 11.9604 32.6177 11.9368 32.3802L11.7577 30.5847L8.61936 30.6525C8.37019 30.659 8.15845 30.4705 8.13437 30.2225L7.40974 22.819C7.39663 22.6852 7.44074 22.552 7.53111 22.4524C7.62148 22.3528 7.74976 22.2961 7.88424 22.2961H15.1014C15.3225 22.2961 15.5144 22.4479 15.5654 22.6628L15.8597 23.9047L18.4398 23.3572L16.533 21.7618C16.359 21.6162 16.3118 21.3677 16.4205 21.1686L17.7961 18.6471C17.9119 18.4346 18.1687 18.3432 18.3931 18.4335L20.0584 19.1045L21.5618 17.2111C21.691 17.0484 21.9109 16.9881 22.1052 17.062L27.1959 19L27.3988 18.124C27.4317 17.9825 27.5274 17.8636 27.6585 17.8012C27.7899 17.7388 27.9425 17.7397 28.0732 17.8036L30.2773 18.8818H36.5817C36.7293 18.8818 36.8688 18.9502 36.9592 19.0669C37.0493 19.1836 37.0806 19.3356 37.0434 19.4783L35.9406 23.7095H46.0982C46.2561 23.7095 46.4036 23.7877 46.4926 23.918C46.5813 24.0483 46.5999 24.2144 46.5419 24.3611L44.2045 30.2742C44.1089 30.5156 43.8371 30.6363 43.5936 30.5453L41.8167 29.8802L40.2239 32.9419C40.1288 33.1256 39.9266 33.2271 39.7215 33.1921L35.4978 32.481L36.0207 34.2465C36.0634 34.3906 36.0355 34.5464 35.9456 34.6667C35.8552 34.7868 35.7136 34.8578 35.5633 34.8578ZM24.2123 33.9049H34.9248L34.3661 32.0193C34.3194 31.8618 34.3573 31.6912 34.4665 31.5681C34.5757 31.4451 34.7398 31.387 34.9029 31.4142L39.5377 32.1946L41.1653 29.0662C41.2764 28.8522 41.5299 28.7555 41.7557 28.8396L43.4894 29.4886L45.3972 24.6622H35.3235C35.1759 24.6622 35.0364 24.5939 34.946 24.4771C34.8559 24.3604 34.8247 24.2084 34.8618 24.0657L35.9646 19.8345H30.1667C30.094 19.8345 30.0224 19.8178 29.9571 19.7859L28.1926 18.9228L28.0019 19.7471C27.9709 19.8812 27.8831 19.9953 27.7615 20.0601C27.6399 20.1246 27.4964 20.1337 27.3676 20.0849L22.0921 18.0766L20.5842 19.9758C20.4528 20.1411 20.2279 20.2004 20.0322 20.1213L18.4303 19.4757L17.4451 21.282L19.8033 23.2548C19.943 23.3717 20.0038 23.5583 19.9599 23.735C19.9158 23.912 19.7746 24.0481 19.5963 24.0862L15.6024 24.9338C15.3484 24.9872 15.099 24.8295 15.0392 24.5774L14.7244 23.2493H8.41025L9.04069 29.6906L12.1781 29.6227C12.4328 29.6089 12.6383 29.8042 12.6631 30.0517L12.8446 31.8713L23.7364 32.2458C23.9908 32.2546 24.1935 32.4614 24.1968 32.7159L24.2123 33.9049Z" fill="white"/>
</svg>
