<svg width="42" height="40" viewBox="0 0 42 40" fill="none" xmlns="http://www.w3.org/2000/svg">
<path d="M4.17163 24.9729H3.5813V23.3925H0.732785V24.9729H0.14502V21.4194H0.732785V22.8608H3.5813V21.4194H4.17163V24.9729Z" fill="white"/>
<path d="M5.94937 21.4194H5.3584V24.9729H5.94937V21.4194Z" fill="white"/>
<path d="M11.4965 23.1412C11.4965 23.7213 11.2883 24.1854 10.8757 24.5432C10.4606 24.8971 9.91255 25.0768 9.22773 25.0768C8.60217 25.0768 8.08038 24.9173 7.66206 24.6002C7.18544 24.2399 6.94873 23.77 6.94873 23.1908C6.94873 22.6223 7.188 22.1537 7.67135 21.7869C8.09192 21.4666 8.62971 21.3052 9.27738 21.3052C10.0586 21.3052 10.6992 21.5918 11.2021 22.1642L10.6518 22.44C10.2822 22.0454 9.80557 21.8462 9.22773 21.8462C8.77481 21.8462 8.39813 21.957 8.09192 22.1796C7.73829 22.4394 7.56276 22.7757 7.56276 23.1905C7.56276 23.5909 7.71459 23.9144 8.01856 24.1627C8.32286 24.4128 8.72677 24.5361 9.22773 24.5361C10.0135 24.5361 10.5237 24.2309 10.7591 23.6178H9.10538V23.0874H11.4965V23.1412Z" fill="white"/>
<path d="M16.5266 24.9729H15.936V23.3925H13.0881V24.9729H12.499V21.4194H13.0881V22.8608H15.936V21.4194H16.5266V24.9729Z" fill="white"/>
<path d="M21.2835 23.1419C21.6884 23.2783 21.8918 23.5791 21.8918 24.0391C21.8918 24.6601 21.4427 24.9724 20.5452 24.9724H17.7124V21.417H20.5853C20.9446 21.417 21.2284 21.5064 21.435 21.6822C21.642 21.8593 21.7448 22.0964 21.7448 22.3898C21.7448 22.7146 21.5901 22.9667 21.2835 23.1419ZM20.5958 22.9064C20.7605 22.9064 20.8963 22.859 21.0049 22.7658C21.116 22.6713 21.1711 22.5563 21.1711 22.4218C21.1711 22.278 21.1205 22.1614 21.0222 22.0772C20.9264 21.9907 20.7896 21.9484 20.6192 21.9484H18.3014V22.9068H20.5958V22.9064ZM20.5507 24.4423C21.0414 24.4423 21.2874 24.2809 21.2874 23.9574C21.2874 23.6089 21.0747 23.435 20.6445 23.435H18.3018V24.4423H20.5507Z" fill="white"/>
<path d="M26.6268 24.9729H22.9048V21.4194H26.4881V21.9486H23.4929V22.8608H25.5755V23.3925H23.4929V24.4428H26.6268V24.9729Z" fill="white"/>
<path d="M31.5469 24.9729H30.8614L29.8982 23.618H28.1045V24.9729H27.5142V21.4194H30.3185C30.692 21.4194 30.9847 21.5197 31.1968 21.7192C31.4104 21.922 31.5177 22.1946 31.5177 22.5383C31.5177 22.8397 31.4296 23.0812 31.256 23.2641C31.0959 23.4355 30.8748 23.5424 30.5949 23.5895L31.5469 24.9729ZM30.2301 23.0873C30.6846 23.0873 30.9133 22.9054 30.9133 22.538C30.9133 22.1449 30.6663 21.9486 30.175 21.9486H28.1045V23.0873H30.2301Z" fill="white"/>
<path d="M36.4964 24.9729H35.8115L34.8477 23.618H33.0543V24.9729H32.4656V21.4194H35.2673C35.6424 21.4194 35.9345 21.5197 36.1466 21.7192C36.3609 21.922 36.4672 22.1946 36.4672 22.5383C36.4672 22.8397 36.3798 23.0812 36.2062 23.2641C36.0431 23.4355 35.8256 23.5424 35.5438 23.5895L36.4964 24.9729ZM35.1786 23.0873C35.6354 23.0873 35.8625 22.9054 35.8625 22.538C35.8625 22.1449 35.6165 21.9486 35.1274 21.9486H33.0546V23.0873H35.1786Z" fill="white"/>
<path d="M41.3225 21.4194L39.3782 23.569V24.9729H38.7895V23.569L36.8442 21.4194H37.5809L39.0877 23.0777L40.588 21.4194H41.3225Z" fill="white"/>
<path d="M41.3542 19.5382L40.9503 19.8367H35.3679C35.6325 19.592 36.4887 18.6304 36.3183 16.5394C36.2744 15.9923 36.0918 15.4776 35.8199 15.0026C35.9919 15.3588 36.1063 15.7428 36.1444 16.1579C36.3628 18.5317 35.4525 19.5273 35.071 19.8364H28.5226L28.5146 19.1785V12.2886C28.7801 12.3799 29.0399 12.4744 29.2913 12.5753C30.2747 13.1461 31.283 14.0077 31.4762 15.2233C31.5947 15.9731 31.6242 16.9007 31.4787 17.5023C31.1232 18.9738 30.0739 19.6906 30.0739 19.6906H34.4698C34.4698 19.6906 36.0371 19.0558 35.6812 15.7662C35.4477 13.6076 33.0598 12.3101 31.6937 11.7985C30.686 11.3975 29.6193 11.0676 28.5146 10.8004V10.13C28.5213 10.0951 28.5258 10.0599 28.5258 10.024C28.5258 8.96441 31.268 8.60695 31.268 8.60695V8.1819L30.6235 7.77734C30.6235 7.77734 30.3496 8.1819 30.095 8.1819H29.2423C28.2052 8.1819 26.5014 8.45544 26.5014 8.45544C26.5014 8.45544 24.8493 8.1819 23.6574 8.1819C22.9998 8.1819 21.2218 8.17133 21.2218 8.17133L21.806 8.56692C21.806 8.56692 24.5443 8.72835 24.5443 10.024C24.5443 10.0669 24.5492 10.1044 24.5565 10.1451C22.241 9.91478 19.8572 9.93464 17.5507 10.1861V10.1287C17.5568 10.0951 17.561 10.0599 17.561 10.024C17.561 8.96441 20.3018 8.60695 20.3018 8.60695V8.1819L19.6555 7.77734C19.6555 7.77734 19.5123 8.17101 19.4738 8.17101C18.9921 8.17101 18.6308 8.18158 18.2775 8.18158C17.2384 8.18158 15.4463 8.45513 15.4463 8.45513C15.4463 8.45513 13.8838 8.18158 12.6945 8.18158C12.0343 8.18158 10.2528 8.17101 10.2528 8.17101L10.8405 8.56659C10.8405 8.56659 13.5798 8.72802 13.5798 10.0237C13.5798 10.0688 13.5843 10.1098 13.5904 10.1508V10.8731C13.0039 11.0246 12.0558 11.2819 11.599 11.4657C10.6102 11.8671 9.14449 12.2918 9.14449 12.2918C9.14449 12.2918 6.93659 12.3411 5.705 12.3411H3.7857V12.7284C3.7857 12.7284 6.62204 12.8917 6.62204 14.1855C6.62204 14.229 6.62685 14.2707 6.63422 14.3123V19.69H10.7319V14.2899C10.7416 14.2572 10.7425 14.2197 10.7432 14.1855C10.7672 12.8946 12.3825 12.2258 13.5904 11.878V12.2175C12.4527 12.5951 11.1676 13.2546 11.1477 14.4129C11.1448 14.4481 11.1448 14.4846 11.1365 14.5183V19.8364H0.0576172L0.645706 20.1592H41.9996V19.8364L41.3542 19.5382ZM28.5146 12.1816C28.5457 12.1915 28.5748 12.2008 28.6033 12.2124C28.8057 12.3088 29.0194 12.4202 29.2353 12.5429C29.16 12.5042 29.0793 12.4635 29.0066 12.4289C28.8458 12.3639 28.6811 12.303 28.5146 12.2418V12.1816ZM13.5901 19.1788L13.5827 19.8367H11.3274V14.6794C11.3354 14.6461 11.3376 14.6112 11.3376 14.5753C11.3376 13.4372 12.4882 12.8107 13.5901 12.4433V19.1788ZM24.5565 19.0897C24.5565 19.0897 23.1488 19.1077 20.9796 19.1077C18.8098 19.1077 17.5507 19.0897 17.5507 19.0897V11.5663C20.0453 11.1826 22.4181 11.1547 24.5565 11.4116V19.0897ZM24.5565 11.2892C22.4265 11.0016 20.0533 11.0016 17.5507 11.3571V11.09C20.0648 10.7719 22.438 10.8171 24.5565 11.1409V11.2892Z" fill="white"/>
<path d="M40.9881 26.8419H34.639C34.5377 26.7724 34.4698 26.7417 34.4698 26.7417H30.0739C30.0739 26.7417 30.1251 26.7798 30.2014 26.8419H10.7317V26.7417H6.63394V26.8419H0L0.644466 27.1642H6.63394V32.1238C6.62657 32.1639 6.62177 32.2052 6.62177 32.2504C6.62177 33.5422 3.78543 33.7081 3.78543 33.7081V34.096H5.70408C6.93663 34.096 9.14421 34.1434 9.14421 34.1434C9.14421 34.1434 10.6099 34.5688 11.5987 34.9685C12.0549 35.153 13.0036 35.4096 13.5924 35.5598V35.8125C13.0347 35.6617 12.3643 35.4704 12.0036 35.3241C11.0132 34.9198 9.54748 34.629 9.54748 34.629C9.54748 34.629 7.33958 34.5797 6.10799 34.5797H4.54712L4.57338 34.8375L9.47189 34.8439C9.47189 34.8439 11.3326 35.1405 12.322 35.5435C12.6148 35.6623 13.1154 35.802 13.5924 35.9214V37.0918C13.584 37.1332 13.5795 37.1745 13.5795 37.2184C13.5795 38.514 10.2525 38.6623 10.2525 38.6623L10.8402 39.3023H12.6942C13.8835 39.3023 15.4453 39.0246 15.4453 39.0246C15.4453 39.0246 17.2388 39.3023 18.2772 39.3023H20.3016V38.8763L19.6552 38.2338L19.339 38.4746C19.339 38.4746 17.5607 38.0137 17.5607 37.2184C17.5607 37.1815 17.5578 37.1469 17.5504 37.1146V36.6835C19.8637 36.9906 22.2353 37.0512 24.5569 36.8587V37.0922C24.5489 37.1335 24.5441 37.1748 24.5441 37.2187C24.5441 38.5143 21.16 38.6601 21.16 38.6601L21.8061 39.3026H23.6568C24.8493 39.3026 26.4999 39.0249 26.4999 39.0249C26.4999 39.0249 28.2059 39.3026 29.2424 39.3026H31.2664V38.8766L30.6226 38.2341C30.6226 38.2341 30.3394 38.3987 30.2469 38.3805C29.4419 38.2078 28.5265 37.9618 28.5265 37.2187C28.5265 37.1819 28.5226 37.1473 28.5137 37.1143V36.2661C29.744 35.9945 30.9426 35.6505 32.0826 35.2206C34.3689 34.3603 35.9634 32.8164 36.1969 31.2135C36.6271 28.2574 35.1969 27.2084 35.1969 27.2084H35.1236C35.5547 27.5505 36.3539 28.5354 36.0858 30.997C35.8747 32.9083 33.6396 34.4115 32.2722 34.9259C31.0982 35.3971 29.8333 35.7712 28.514 36.0627V35.636C29.6197 35.3702 30.6879 35.0387 31.694 34.6376C33.0605 34.1264 35.4477 32.8279 35.6806 30.6693C35.8975 28.6754 35.4071 27.6613 34.9881 27.1654H42V26.8432L41.3539 26.5405L40.9881 26.8419ZM20.9797 28.1341C23.1488 28.1341 24.5572 28.1523 24.5572 28.1523V35.2949C22.438 35.621 20.0626 35.6646 17.5507 35.3462V28.1523C17.5504 28.152 18.8086 28.1341 20.9797 28.1341ZM10.7432 32.2504C10.7426 32.2129 10.7416 32.1789 10.732 32.1453V27.1642H11.1365V32.4819C11.1439 32.5146 11.1449 32.5502 11.1461 32.5883C11.1545 33.0249 11.3463 33.3891 11.6375 33.6943C11.125 33.3314 10.7538 32.8622 10.7432 32.2504ZM11.8745 33.85C11.5741 33.5447 11.3726 33.1844 11.3633 32.7494C11.3633 32.7107 11.3633 32.6767 11.3543 32.6431V27.1642H13.601L13.5927 28.0633V34.5569C13.0392 34.398 12.4066 34.1709 11.8745 33.85ZM24.5572 36.6642C22.226 36.8683 19.8394 36.8289 17.5507 36.5585V36.2494C19.8573 36.5028 22.241 36.5217 24.5572 36.292V36.6642ZM31.4788 28.9329C31.6242 29.5341 31.5947 30.4637 31.4762 31.2119C31.2363 32.7164 29.7523 33.6879 28.6027 34.2222C28.5732 34.2334 28.5438 34.244 28.5137 34.2542V28.0633L28.5236 27.1642H30.5326C30.8619 27.5232 31.2779 28.104 31.4788 28.9329Z" fill="white"/>
<path d="M27.8796 19.5388L27.8684 18.7768V9.72645C27.8774 9.69473 27.8812 9.65758 27.8812 9.62235C27.8812 8.56245 30.6228 8.20402 30.6228 8.20402V7.77832H28.5962C27.56 7.77832 25.8572 8.05443 25.8572 8.05443C25.8572 8.05443 24.205 7.77832 23.0106 7.77832H21.1602V8.16526C21.1602 8.16526 23.9001 8.32894 23.9001 9.62235C23.9001 9.66687 23.9039 9.70755 23.9129 9.74855V18.6858C23.9129 18.6858 22.5029 18.7057 20.3328 18.7057C18.1627 18.7057 16.9061 18.6858 16.9061 18.6858V9.72645C16.9116 9.69473 16.918 9.65758 16.918 9.62235C16.918 8.56245 19.6557 8.20402 19.6557 8.20402V7.77832H17.6307C16.5954 7.77832 14.8011 8.05443 14.8011 8.05443C14.8011 8.05443 13.2395 7.77832 12.0477 7.77832H10.1969V8.16526C10.1969 8.16526 12.9352 8.32894 12.9352 9.62235C12.9352 9.66687 12.94 9.70755 12.9474 9.74855V18.7771L12.9385 19.5391H0.000488281V19.8617H41.3544V19.5391H27.8796V19.5388Z" fill="white"/>
<path d="M0 26.8619H12.9537L12.9453 27.6582V36.6887C12.9399 36.7294 12.9348 36.7714 12.9348 36.8133C12.9348 38.1096 10.1964 38.2723 10.1964 38.2723V38.6589H12.0478C13.2381 38.6589 14.8006 38.3812 14.8006 38.3812C14.8006 38.3812 16.5949 38.6589 17.6318 38.6589H19.6552V38.2329C19.6552 38.2329 16.9175 37.8739 16.9175 36.8133C16.9175 36.7784 16.9108 36.7425 16.9056 36.7108V27.7489C16.9056 27.7489 18.1625 27.7313 20.3323 27.7313C22.5021 27.7313 23.9108 27.7489 23.9108 27.7489V36.6887C23.9034 36.7294 23.8996 36.7714 23.8996 36.8133C23.8996 38.1096 21.1581 38.2723 21.1581 38.2723V38.6589H23.0117C24.2045 38.6589 25.8567 38.3812 25.8567 38.3812C25.8567 38.3812 27.5592 38.6589 28.5966 38.6589H30.6223V38.2329C30.6223 38.2329 27.8807 37.8739 27.8807 36.8133C27.8807 36.7784 27.8769 36.7425 27.8689 36.7108V27.6582L27.8791 26.8619H41.3536V26.5391H0V26.8619Z" fill="white"/>
<path fill-rule="evenodd" clip-rule="evenodd" d="M21.007 3.90458C21.2453 3.6557 21.4795 3.40617 21.7197 3.15793C21.8907 2.87734 21.8139 2.12333 21.9657 1.91481C21.8978 1.56952 21.5323 1.51635 21.3625 1.27708C21.2049 1.0567 21.0003 0.866758 20.8673 0.637736C20.7405 0.421847 20.6627 0.22165 20.5112 0.0339489C20.4727 0.00640221 20.4788 0.0128124 20.4064 0C20.2616 0.260412 20.2661 0.627168 20.1201 0.923775C19.941 1.28733 19.4349 1.42505 19.3042 1.8453C18.9336 2.42474 19.5505 3.58138 19.8715 3.83379C20.0134 3.94269 20.1675 3.96383 20.2626 4.11758C20.3866 4.31265 20.1812 4.76333 20.4394 4.8969C20.4788 4.92668 20.449 4.91099 20.5112 4.93437C20.6041 4.6746 20.6101 4.29408 20.761 4.08267C20.8263 3.91707 20.8754 3.99202 21.007 3.90458ZM21.08 1.48944H21.1511V1.63198H21.08V1.48944ZM21.007 1.70276H21.0804C21.0643 1.77611 21.0698 1.77003 21.0435 1.80815V1.84498H20.973C20.9839 1.76234 20.9894 1.75625 21.007 1.70276ZM20.867 1.84498C20.8376 1.80302 20.8376 1.78604 20.8311 1.70276C20.8581 1.74472 20.8581 1.76234 20.867 1.84498ZM20.7953 1.52467V1.66721H20.7607C20.7405 1.60955 20.728 1.58265 20.7238 1.48912C20.7463 1.50065 20.7713 1.51442 20.7953 1.52467ZM20.1197 1.17041C20.2447 1.20052 20.2165 1.21974 20.2975 1.27675C20.2815 1.64287 20.0467 1.61821 19.9093 1.84467H19.8014C19.9221 1.61853 20.1095 1.51987 20.1197 1.17041ZM19.6239 1.88054H19.6957V1.95164H19.6239V1.88054ZM20.5816 4.04615C20.5454 3.98145 20.5361 3.98594 20.5105 3.90458C20.4836 3.8482 20.5416 3.7457 20.6172 3.68997V3.61854C20.5009 3.65121 20.4654 3.67523 20.4058 3.75979C20.3055 3.74538 20.0964 3.70951 20.0131 3.65537C19.967 3.58715 19.9686 3.44013 19.8712 3.33571C19.5176 2.94589 19.4442 2.75498 19.5153 2.12878C19.6425 2.1749 19.6784 2.24761 19.8014 2.30559C19.8693 2.13519 20.0096 1.96542 20.1569 1.77227C20.1672 1.76234 20.1793 1.75081 20.1905 1.73896V1.77227H20.2623C20.2536 1.89815 20.252 1.92314 20.1905 1.98752V2.02244C20.4074 1.95421 20.4849 1.74216 20.5816 1.56087C20.6483 1.60763 20.6434 1.63197 20.7235 1.66721C20.7001 1.9936 19.9823 2.84884 19.7658 3.01668V3.0865C20.1425 2.95325 20.3763 2.3594 20.6521 2.09418V2.05895C20.7924 2.14511 20.6438 2.34787 20.5454 2.41321V2.48368C20.7184 2.42539 20.8513 2.1954 20.9016 2.02276H20.9727C20.9593 2.14864 20.9698 2.13903 20.9016 2.19925V2.37702C20.9128 2.36581 20.9266 2.35428 20.9385 2.34146C21.0746 2.24249 21.0752 2.04166 21.1841 1.91513V1.88118H21.2575C21.219 2.14543 21.1252 2.43243 20.9727 2.59066V2.69605C21.1162 2.60027 21.326 2.36133 21.3978 2.19957H21.4686C21.4641 2.36613 21.4429 2.43755 21.3622 2.51891V2.73128H21.4343C21.4686 2.65408 21.4916 2.63166 21.5051 2.51891H21.5762C21.5874 2.53172 21.6012 2.54261 21.6114 2.55479C21.5458 2.98849 21.2709 3.48017 20.973 3.69029C20.8219 3.79919 20.6893 3.86037 20.6178 4.04647H20.5816V4.04615ZM20.5454 1.70276C20.5259 1.75978 20.516 1.78828 20.5108 1.88085C20.5598 1.86964 20.606 1.85651 20.6521 1.8453C20.6287 1.71622 20.6582 1.74632 20.5454 1.70276ZM20.4743 1.95164C20.4993 1.89815 20.5208 1.93499 20.4743 1.88054C20.4135 2.01187 20.3472 2.09066 20.2277 2.16465V2.26939H20.2972C20.3673 2.16465 20.4391 2.10027 20.4743 1.95164ZM20.0518 2.2348H19.9782C20.015 2.26459 19.9878 2.24793 20.0518 2.26939V2.2348ZM19.8715 2.41321H19.9093C19.8613 2.32609 19.9247 2.38726 19.8356 2.34082C19.7744 2.4193 19.7203 2.47055 19.6242 2.51828C19.6114 2.55415 19.6002 2.59002 19.588 2.62558H19.6242V2.66113C19.7507 2.61949 19.8308 2.5423 19.8715 2.41321ZM20.9016 2.48368C20.8882 2.40905 20.8943 2.41577 20.867 2.37669C20.728 2.58073 20.3017 3.15985 20.1197 3.30047V3.33571C20.5262 3.25467 20.6073 2.69188 20.9016 2.48368ZM19.9423 2.66145C19.9205 2.59995 19.9368 2.62782 19.909 2.59003C19.8353 2.64928 19.7658 2.70853 19.6953 2.76715V2.83954C19.8609 2.80527 19.8398 2.74153 19.9423 2.66145ZM21.2575 2.6954C21.2242 2.58073 21.2764 2.64063 21.1841 2.59003C21.138 2.6669 21.0752 2.81232 21.0067 2.87414V2.98112H21.0429C21.0996 2.87125 21.1713 2.77644 21.2575 2.6954ZM20.7238 2.94556V3.01668C20.8619 2.96863 20.883 2.88919 20.9727 2.80302C20.941 2.68867 20.9926 2.74953 20.9016 2.6954C20.8542 2.79278 20.8068 2.8815 20.7238 2.94556ZM21.0432 3.15793V3.22968C21.1774 3.16017 21.2271 3.07593 21.326 2.98144C21.2959 2.86645 21.3472 2.92603 21.2575 2.87446C21.2158 2.99009 21.1252 3.08266 21.0432 3.15793ZM20.0518 3.05159C19.9846 3.14736 19.9138 3.17619 19.8715 3.30047C20.0172 3.2758 20.0467 3.2505 20.0861 3.12238H20.1197C20.0736 3.03589 20.138 3.09739 20.0518 3.05159ZM20.6889 3.0865H20.6172C20.5816 3.13391 20.5451 3.18132 20.5105 3.22936C20.5736 3.27805 20.6745 3.10828 20.6889 3.0865ZM20.9388 3.12238V3.0865C20.7261 3.1307 20.6399 3.30528 20.4746 3.40618V3.51348C20.7238 3.46447 20.7629 3.24538 20.9388 3.12238ZM20.7953 3.40618V3.47632C20.8308 3.46607 20.867 3.4539 20.9016 3.44173C20.9128 3.41803 20.9266 3.39496 20.9385 3.3719C20.9016 3.36036 20.8667 3.34755 20.8308 3.33602C20.8074 3.39656 20.8215 3.37094 20.7953 3.40618ZM20.228 3.58427H20.2623C20.2405 3.52245 20.2549 3.54999 20.228 3.51348V3.58427ZM19.5153 4.22296C19.3984 4.18869 19.2799 4.1509 19.1627 4.11726C18.6819 3.89145 18.1617 3.53654 17.4577 3.54807C17.3904 3.59932 17.2969 3.57498 17.21 3.61886C16.7277 3.87127 16.2892 4.36422 15.5422 4.36422C15.5294 4.37671 15.5194 4.38888 15.5044 4.40105C15.5451 4.92124 16.2283 4.8245 16.6418 4.96832C16.9506 5.07531 17.5316 5.63457 17.99 5.50004C18.163 5.44975 18.5012 5.35814 18.6646 5.25308C19.0781 4.98754 19.1928 4.42668 19.7658 4.96832C19.9538 4.95103 19.9561 4.89113 20.0131 4.75692C19.8488 4.5942 19.7117 4.34884 19.5153 4.22296ZM18.5589 4.18837C18.5381 4.29823 18.5528 4.27357 18.4881 4.32898V4.36358C18.6178 4.3434 18.6969 4.29567 18.7725 4.22264H18.8792V4.29343C18.654 4.40298 18.3885 4.62431 18.1309 4.64994C18.1454 4.50099 18.1694 4.44429 18.1309 4.32898C18.2504 4.27805 18.2799 4.3056 18.31 4.15057C18.3942 4.16242 18.4766 4.17556 18.5589 4.18837ZM18.0608 4.04615C18.1309 4.03494 18.2033 4.02213 18.276 4.01092V4.15121H18.0608V4.04615ZM17.5999 3.90458C17.7379 3.90714 17.7802 3.91226 17.8487 3.97472H17.9205C17.8971 3.99875 17.8715 4.02213 17.8487 4.04647C17.8949 4.15602 17.924 4.14481 18.0268 4.18869C17.9673 4.25852 17.9093 4.32931 17.8487 4.40105C17.6018 4.39145 17.6261 4.32002 17.4231 4.29375C17.4942 4.06794 17.6684 4.09965 17.5999 3.90458ZM17.1748 4.89625C17.1015 4.88344 17.1069 4.88921 17.0685 4.86134H16.9958V4.82643C17.0653 4.78767 17.1527 4.73994 17.21 4.68389C17.2719 4.70599 17.244 4.69125 17.2821 4.71976H17.3154C17.2699 4.77838 17.22 4.83795 17.1748 4.89625ZM17.4932 4.86134C17.4564 4.88921 17.4608 4.88344 17.3875 4.89625V4.79023H17.5316C17.5054 4.85301 17.5227 4.82643 17.4932 4.86134ZM17.5999 4.68356C17.7085 4.62719 17.826 4.54807 17.9205 4.47248C17.9471 4.51604 17.9243 4.5058 17.9205 4.61278C17.8558 4.64449 17.7901 4.67364 17.743 4.71944H17.5999V4.68356ZM18.2405 5.11054C18.2037 5.13905 18.2315 5.12271 18.1678 5.14641C18.1437 5.10093 18.1293 5.07275 18.097 5.03911V5.00387C18.1793 4.99587 18.1995 4.99779 18.2402 4.968H18.3811C18.3414 5.07626 18.3478 5.07435 18.2405 5.11054ZM18.5589 4.86134C18.5477 4.8748 18.5371 4.88632 18.5236 4.89625H18.4541V4.82611H18.5589V4.86134ZM18.6293 4.75659C18.6902 4.77838 18.663 4.763 18.7004 4.79023C18.6405 4.76717 18.6678 4.7835 18.6293 4.75659ZM18.0973 4.968C17.9996 5.00868 17.7523 4.96352 17.7085 4.93405C17.695 4.92124 17.6828 4.91067 17.6723 4.89657C17.7296 4.84949 17.7129 4.87608 17.7434 4.79055C17.8561 4.7739 17.9999 4.84116 18.1681 4.79055C18.31 4.74763 18.9442 4.40106 19.0204 4.29375H19.0928C19.04 4.4238 18.2543 4.90362 18.0973 4.968ZM24.9843 4.25819C24.6515 3.84307 23.7835 3.52693 23.1018 3.54775C22.8808 3.70406 22.3712 3.79503 22.1085 3.9382C21.9996 3.99874 21.8324 4.10349 21.719 4.18837C21.6108 4.30656 21.5044 4.42347 21.3975 4.54135C21.2998 4.599 21.2162 4.56633 21.1133 4.6131C20.9836 4.67428 20.8408 4.79408 20.6886 4.86134C20.7081 4.97473 20.7197 4.96609 20.7604 5.03944C20.9942 5.09133 21.2834 5.02438 21.5756 5.11086C21.9106 5.2092 22.6662 5.62656 23.1387 5.50004C23.9442 5.28575 24.3549 4.64609 25.3036 4.57947C25.3126 4.56666 25.327 4.55384 25.3389 4.54167C25.2886 4.31969 25.0977 4.40105 24.9843 4.25819ZM21.8613 4.50644V4.54103H21.7889C21.8212 4.46544 21.8196 4.49138 21.8613 4.43597H21.8959C21.9109 4.5058 21.8792 4.4821 21.8613 4.50644ZM23.9193 4.01092H23.9897C24.0009 4.02213 24.0121 4.03494 24.0259 4.04615C23.9731 4.1336 24.0355 4.0878 23.9193 4.11726V4.01092ZM22.9241 3.9382C23.0621 3.91803 23.3321 3.85364 23.4567 3.9382C23.5586 3.94237 23.6095 3.95326 23.6713 3.9744V4.0106C23.5746 4.03142 23.4849 4.09804 23.4215 4.11694C23.1598 4.18837 23.1005 3.95678 22.8895 4.15057H22.8174C22.8584 4.18036 22.8786 4.18036 22.9593 4.18805V4.25788C22.844 4.31874 22.7985 4.37895 22.6415 4.40041C22.6704 4.1589 22.8097 4.08811 22.9241 3.9382ZM23.1736 4.15089C23.1127 4.18869 23.0922 4.18965 23.0304 4.15089H23.1736ZM22.9961 4.43628C22.9343 4.41322 22.9599 4.42956 22.9237 4.40105C22.9865 4.4238 22.9593 4.40682 22.9961 4.43628ZM22.6755 4.57915C22.6156 4.60926 22.63 4.60862 22.5698 4.57915H22.6755ZM22.499 4.22296H22.6063C22.533 4.30688 22.5141 4.27357 22.499 4.43628H22.2863C22.3549 4.36389 22.4279 4.29343 22.499 4.22296ZM22.3216 4.79023C22.2242 4.76717 22.2617 4.81297 22.2514 4.71944H22.3216V4.79023ZM23.0682 5.18069C23.0567 5.1935 23.0448 5.20407 23.0304 5.21721H22.9593V5.14641H23.0682V5.18069ZM23.4929 5.11054V5.14641C23.4061 5.09837 23.4689 5.16371 23.4212 5.07595H23.3866C23.4193 4.99907 23.4167 5.02182 23.4567 4.96769H23.5986C23.5663 5.07435 23.5858 5.06506 23.4929 5.11054ZM23.9897 4.6131C23.943 4.62463 23.8936 4.63776 23.8488 4.65025V4.75659H23.9542C23.8895 4.8072 23.7565 4.92348 23.6335 4.89657C23.6041 4.83732 23.6018 4.79344 23.4932 4.82643C23.3936 4.8559 23.287 4.9491 23.1393 4.968V4.86134C22.9644 4.88857 22.7809 4.97473 22.6761 5.07627H22.5336V5.03944C22.7216 4.94847 22.8642 4.82354 23.031 4.71976V4.68389C22.8107 4.7361 22.5983 4.82835 22.4641 4.96832H22.393V4.89657C22.6323 4.7566 22.9449 4.62751 23.1393 4.43628H23.2082C23.1793 4.4113 23.1297 4.38952 23.1025 4.3639C23.089 4.35301 23.0775 4.34052 23.0688 4.32931C23.1534 4.28767 23.2758 4.24314 23.3517 4.18869H23.4221C23.3843 4.27101 23.3542 4.28606 23.2802 4.32931C23.3286 4.3687 23.3843 4.38504 23.4577 4.40105V4.50675C23.5304 4.49362 23.5996 4.48337 23.6723 4.4728C23.6841 4.48337 23.6954 4.49362 23.7056 4.50675C23.6723 4.54135 23.6345 4.57946 23.5999 4.6131H23.5653V4.65025C23.7056 4.62463 23.8501 4.60157 23.991 4.57915V4.6131H23.9897ZM24.1316 4.50644C23.9148 4.46544 23.7924 4.36838 23.5291 4.3639C23.5692 4.28574 23.5788 4.31104 23.6332 4.25819H23.671C23.639 4.18228 23.639 4.20791 23.5983 4.15089C23.704 4.16723 23.7191 4.17011 23.7758 4.22296H24.0589C24.0105 4.29151 24.0144 4.29824 23.9189 4.32931C23.9756 4.39689 24.0269 4.41514 24.1313 4.43628V4.50644H24.1316ZM24.3097 4.65025C24.2819 4.61085 24.287 4.61758 24.2729 4.54135H24.3783C24.345 4.62014 24.3466 4.5942 24.3097 4.65025ZM23.2079 4.54135C23.1678 4.59772 23.1685 4.57081 23.139 4.65025H23.0682C23.1534 4.70374 23.2146 4.67428 23.2793 4.6131H23.3148C23.2626 4.52629 23.3254 4.57082 23.2079 4.54135ZM23.351 4.75659C23.4551 4.73994 23.4705 4.73866 23.5294 4.68356H23.564V4.65025H23.3866C23.3738 4.68356 23.3632 4.71976 23.351 4.75659Z" fill="white"/>
<path fill-rule="evenodd" clip-rule="evenodd" d="M20.0131 4.29173C20.0358 4.27667 19.8891 3.9948 19.8305 3.92561C19.7008 3.77314 19.5121 3.6841 19.3529 3.55822C19.146 3.39518 19.0096 3.1069 18.8411 2.89934C18.8289 2.88557 18.8155 2.87435 18.8026 2.86122C18.7777 2.93553 18.7914 2.97397 18.7671 3.00792C18.7552 3.02138 18.7424 3.03195 18.7296 3.04572V3.00792H18.6569C18.7146 2.88621 18.7732 2.75424 18.8026 2.60562C18.7158 2.4996 18.7037 2.34872 18.6207 2.23854C18.5717 2.17512 18.4849 2.16551 18.4359 2.09184C18.2655 2.07935 18.0935 2.06622 17.924 2.05469C17.7767 2.18409 17.5951 2.17288 17.5169 2.38461C17.2552 2.76353 17.6393 3.09954 17.8116 3.33881C17.917 3.33657 18.0121 3.33656 18.0688 3.3766C18.3353 3.37052 18.5144 3.24367 18.6207 3.08223C18.6623 3.1511 18.605 3.21933 18.6207 3.26609C18.6547 3.3766 18.9641 3.45252 19.0602 3.52203C19.392 3.7597 19.6591 4.12325 20.0134 4.32857V4.29173H20.0131ZM17.9948 2.86122C17.973 2.9256 17.9865 2.89838 17.9564 2.93361C17.9993 2.96276 17.9932 2.95732 18.0688 2.97077V3.00792C18.0064 3.03035 18.0352 3.01497 17.9951 3.04572C17.8289 3.0169 17.7975 2.95892 17.629 2.93329C17.6569 2.76353 17.5951 2.52618 17.7024 2.38461C17.7392 2.34873 17.7767 2.31125 17.8119 2.27313H17.9243V2.31093C17.8548 2.34104 17.826 2.36218 17.7395 2.38428C17.7267 2.4208 17.7129 2.45731 17.7027 2.49415C17.7129 2.50632 17.7267 2.51818 17.7395 2.53099C17.9064 2.50312 17.9955 2.4397 18.1434 2.38428C18.1553 2.39453 18.1681 2.40862 18.1796 2.42079C18.0746 2.53098 17.9378 2.58287 17.777 2.64181V2.7142C17.8619 2.79556 17.8395 2.83367 17.9948 2.86122ZM18.1066 2.27345C18.1979 2.30068 18.2335 2.3263 18.2908 2.38492C18.1995 2.35449 18.1627 2.33239 18.1066 2.27345ZM23.3168 2.75168C23.295 2.52618 23.1899 2.49031 23.0977 2.34873C22.9068 2.30549 22.7332 2.26801 22.4744 2.27345C22.3542 2.42688 22.1745 2.50824 22.106 2.71484V2.97077C21.9596 3.09281 21.8126 3.21644 21.6653 3.33912C21.5845 3.44931 21.5663 3.59953 21.482 3.7062C21.4875 3.84745 21.4788 3.86091 21.5547 3.92561C21.7155 4.03676 22.0579 3.31606 22.1797 3.19146C22.212 3.15879 22.4699 3.3798 22.5464 3.44931C22.7162 3.44322 22.9375 3.42369 23.025 3.37692C23.1746 3.32471 23.2748 3.20075 23.3171 3.04572C23.3661 2.97526 23.3677 2.82151 23.3168 2.75168ZM22.3286 3.04572H22.2517V2.97077C22.2774 2.9839 22.3014 2.99511 22.3286 3.00792V3.04572ZM23.0246 2.89934C22.9385 2.85546 22.9551 2.86443 22.9119 2.78851C22.8193 2.83432 22.8328 2.82567 22.8017 2.93329C22.7021 2.93329 22.6335 2.9333 22.5813 2.89934H22.5102V2.75168C22.6214 2.72862 22.5977 2.74367 22.6566 2.67801H22.6912C22.6422 2.56782 22.6095 2.6037 22.581 2.45764C22.5455 2.47013 22.5099 2.48294 22.4737 2.49447V2.42112C22.5785 2.41887 22.6729 2.41888 22.7303 2.45731C22.9378 2.48102 22.9055 2.54572 23.024 2.64213C23.0695 2.64213 23.0416 2.66488 23.0974 2.6053H23.1313C23.098 2.70235 23.0573 2.80005 23.0246 2.89934ZM20.4538 5.39359C20.441 5.32024 20.4298 5.24721 20.418 5.17322C20.3235 5.18059 20.294 5.18892 20.2344 5.21038C20.2546 5.32345 20.2411 5.29911 20.3071 5.35708C20.2293 5.56656 19.999 5.69629 19.9039 5.90641H19.8686V6.38527C19.966 6.63223 20.449 6.8036 20.7463 6.64024C20.8898 6.56272 20.9615 6.3446 21.08 6.23665C21.0637 5.72128 20.787 5.58706 20.4538 5.39359ZM20.6012 5.68731C20.7197 5.73472 20.728 5.8052 20.8216 5.87086V5.94453C20.7139 5.8763 20.6313 5.84299 20.5666 5.79686C20.5362 5.83306 20.5105 5.89744 20.4897 5.94453C20.4542 5.95574 20.418 5.96823 20.3818 5.982C20.369 5.96823 20.3552 5.95574 20.3433 5.94453C20.3907 5.777 20.5105 5.80519 20.6012 5.68731ZM20.746 6.49514C20.6364 6.52204 20.5256 6.56689 20.4538 6.53166C20.3529 6.53166 20.287 6.52909 20.2341 6.49514H20.1963C20.2674 6.43588 20.343 6.41282 20.4176 6.45863C20.5813 6.45574 20.6169 6.43396 20.7104 6.38527C20.7232 6.27381 20.7328 6.16394 20.7456 6.05408C20.8324 6.08162 20.8305 6.09315 20.8936 6.12743C20.8494 6.28278 20.7748 6.32826 20.746 6.49514Z" fill="white"/>
</svg>
