<svg width="54" height="54" viewBox="0 0 54 54" fill="none" xmlns="http://www.w3.org/2000/svg">
<path d="M26.9768 53.9624C41.8756 53.9624 53.9535 41.8825 53.9535 26.9812C53.9535 12.0799 41.8756 0 26.9768 0C12.0779 0 0 12.0799 0 26.9812C0 41.8825 12.0779 53.9624 26.9768 53.9624Z" fill="#6CB565"/>
<path d="M43.5628 31.8036H8.99596C8.72327 31.8036 8.50195 31.5822 8.50195 31.3095C8.50195 31.0368 8.72327 30.8154 8.99596 30.8154H43.5628C43.8355 30.8154 44.0568 31.0368 44.0568 31.3095C44.0568 31.5822 43.8355 31.8036 43.5628 31.8036Z" fill="white"/>
<path d="M13.5016 37.8729C13.2289 37.8729 13.0076 37.6516 13.0076 37.3788V31.3095C13.0076 31.0368 13.2289 30.8154 13.5016 30.8154C13.7743 30.8154 13.9956 31.0368 13.9956 31.3095V37.3788C13.9956 37.6516 13.7743 37.8729 13.5016 37.8729Z" fill="white"/>
<path d="M26.2789 37.8729C26.0062 37.8729 25.7849 37.6516 25.7849 37.3788V31.3095C25.7849 31.0368 26.0062 30.8154 26.2789 30.8154C26.5516 30.8154 26.7729 31.0368 26.7729 31.3095V37.3788C26.7729 37.6516 26.5519 37.8729 26.2789 37.8729Z" fill="white"/>
<path d="M39.057 37.8729C38.7843 37.8729 38.563 37.6516 38.563 37.3788V31.3095C38.563 31.0368 38.7843 30.8154 39.057 30.8154C39.3297 30.8154 39.551 31.0368 39.551 31.3095V37.3788C39.551 37.6516 39.3297 37.8729 39.057 37.8729Z" fill="white"/>
<path d="M43.5628 37.8749H8.99596C8.72327 37.8749 8.50195 37.6535 8.50195 37.3808C8.50195 37.1081 8.72327 36.8867 8.99596 36.8867H43.5628C43.8355 36.8867 44.0568 37.1081 44.0568 37.3808C44.0568 37.6535 43.8355 37.8749 43.5628 37.8749Z" fill="white"/>
<path d="M25.2106 29.2497H10.9767C10.704 29.2497 10.4827 29.0284 10.4827 28.7556V17.2538C10.4827 16.9811 10.704 16.7598 10.9767 16.7598H25.2106C25.4833 16.7598 25.7046 16.9811 25.7046 17.2538V28.7556C25.7046 29.0284 25.4836 29.2497 25.2106 29.2497ZM11.4707 28.2616H24.7166V17.7479H11.4707V28.2616Z" fill="white"/>
<path d="M20.41 19.9442H15.7779C15.5052 19.9442 15.2839 19.7229 15.2839 19.4501V17.3935C15.2839 17.1208 15.5052 16.8994 15.7779 16.8994C16.0506 16.8994 16.2719 17.1208 16.2719 17.3935V18.956H19.916V17.3935C19.916 17.1208 20.1373 16.8994 20.41 16.8994C20.6826 16.8994 20.904 17.1208 20.904 17.3935V19.4501C20.904 19.7229 20.6826 19.9442 20.41 19.9442Z" fill="white"/>
<path d="M41.582 29.2497H27.3478C27.0751 29.2497 26.8538 29.0284 26.8538 28.7556V17.2538C26.8538 16.9811 27.0751 16.7598 27.3478 16.7598H41.582C41.8547 16.7598 42.076 16.9811 42.076 17.2538V28.7556C42.076 29.0284 41.8549 29.2497 41.582 29.2497ZM27.8418 28.2616H41.088V17.7479H27.8418V28.2616Z" fill="white"/>
<path d="M36.7811 19.9442H32.1488C31.8761 19.9442 31.6548 19.7229 31.6548 19.4501V17.3935C31.6548 17.1208 31.8761 16.8994 32.1488 16.8994C32.4215 16.8994 32.6428 17.1208 32.6428 17.3935V18.956H36.2871V17.3935C36.2871 17.1208 36.5084 16.8994 36.7811 16.8994C37.0537 16.8994 37.2751 17.1208 37.2751 17.3935V19.4501C37.2751 19.7229 37.0537 19.9442 36.7811 19.9442Z" fill="white"/>
</svg>
