<svg width="97" height="69" viewBox="0 0 97 69" fill="none" xmlns="http://www.w3.org/2000/svg">
<path d="M59.6227 0.280715V20.7167H56.9138V0.280715H59.6227Z" fill="#6AB354"/>
<path d="M75.0339 18.3728L80.2272 22.4852L78.4025 24.1695L73.2935 20.1132L75.0339 18.3728ZM80.157 9.85308V11.1444C80.157 12.6789 79.9652 14.0544 79.5815 15.2709C79.1979 16.4873 78.6458 17.5213 77.9253 18.3728C77.2048 19.2243 76.3393 19.8746 75.3287 20.3237C74.3275 20.7729 73.2046 20.9975 71.9601 20.9975C70.753 20.9975 69.6442 20.7729 68.6337 20.3237C67.6324 19.8746 66.7622 19.2243 66.023 18.3728C65.2931 17.5213 64.727 16.4873 64.3247 15.2709C63.9223 14.0544 63.7211 12.6789 63.7211 11.1444V9.85308C63.7211 8.31851 63.9176 6.94769 64.3106 5.74061C64.713 4.52418 65.2791 3.49022 66.009 2.63872C66.7388 1.77786 67.6044 1.12286 68.6056 0.673715C69.6162 0.224572 70.725 0 71.932 0C73.1765 0 74.3041 0.224572 75.3147 0.673715C76.3252 1.12286 77.1908 1.77786 77.9113 2.63872C78.6318 3.49022 79.1838 4.52418 79.5675 5.74061C79.9605 6.94769 80.157 8.31851 80.157 9.85308ZM77.4762 11.1444V9.82501C77.4762 8.60858 77.3498 7.53251 77.0972 6.59679C76.8539 5.66108 76.4937 4.87508 76.0164 4.23879C75.5392 3.6025 74.9591 3.12061 74.276 2.79311C73.5929 2.46561 72.8116 2.30186 71.932 2.30186C71.0993 2.30186 70.3413 2.46561 69.6583 2.79311C68.9845 3.12061 68.4044 3.6025 67.9178 4.23879C67.4313 4.87508 67.057 5.66108 66.795 6.59679C66.533 7.53251 66.402 8.60858 66.402 9.82501V11.1444C66.402 12.3702 66.533 13.4556 66.795 14.4007C67.057 15.3364 67.4313 16.1271 67.9178 16.7727C68.4138 17.409 69.0033 17.8909 69.6863 18.2184C70.3694 18.5459 71.1273 18.7096 71.9601 18.7096C72.8397 18.7096 73.621 18.5459 74.3041 18.2184C74.9872 17.8909 75.5626 17.409 76.0305 16.7727C76.5077 16.1271 76.8679 15.3364 77.1112 14.4007C77.3545 13.4556 77.4762 12.3702 77.4762 11.1444Z" fill="#6AB354"/>
<path d="M87.0485 0.280715V20.7167H84.3396V0.280715H87.0485ZM95.6103 9.47412V11.6918H86.459V9.47412H95.6103ZM96.9999 0.280715V2.49836H86.459V0.280715H96.9999Z" fill="#6AB354"/>
<path d="M46.327 64.4413H24.9564C24.3783 64.4413 23.9099 63.973 23.9099 63.3949V38.3086C23.9099 38.0508 24.0054 37.8019 24.1785 37.6092L34.8615 25.728C35.2585 25.2873 36.0213 25.2873 36.4183 25.728L47.1049 37.6092C47.2771 37.8019 47.3735 38.0508 47.3735 38.3086V63.3949C47.3735 63.973 46.9051 64.4413 46.327 64.4413ZM26.0037 62.3493H45.2806V38.711L35.6395 27.9931L26.0028 38.711V62.3493H26.0037Z" fill="#6AB354"/>
<path d="M33.1823 49.3364H28.885C28.3069 49.3364 27.8376 48.8681 27.8376 48.29V41.4127C27.8376 40.8355 28.306 40.3662 28.885 40.3662H33.1823C33.7595 40.3662 34.2288 40.8346 34.2288 41.4127V48.29C34.2288 48.8672 33.7595 49.3364 33.1823 49.3364ZM29.9306 47.2435H32.1359V42.4591H29.9306V47.2435Z" fill="#6AB354"/>
<path d="M42.3851 49.3364H38.0887C37.5115 49.3364 37.0422 48.8681 37.0422 48.29V41.4127C37.0422 40.8355 37.5106 40.3662 38.0887 40.3662H42.3851C42.9623 40.3662 43.4316 40.8346 43.4316 41.4127V48.29C43.4316 48.8672 42.9632 49.3364 42.3851 49.3364ZM39.1351 47.2435H41.3396V42.4591H39.1351V47.2435Z" fill="#6AB354"/>
<path d="M49.5992 64.4413C49.022 64.4413 48.5527 63.9729 48.5527 63.3949V36.7857C48.5527 36.2085 49.0211 35.7393 49.5992 35.7393C50.1773 35.7393 50.6456 36.2076 50.6456 36.7857V63.3949C50.6456 63.9729 50.1773 64.4413 49.5992 64.4413Z" fill="#6AB354"/>
<path d="M49.6 37.8322C49.3083 37.8322 49.0184 37.7108 48.8105 37.4744L38.6118 25.8056C38.2318 25.3702 38.2764 24.7092 38.7108 24.3282C39.1462 23.9482 39.8072 23.9937 40.1882 24.4281L50.3868 36.097C50.7669 36.5324 50.7232 37.1934 50.2878 37.5735C50.0897 37.7474 49.8444 37.8322 49.6 37.8322Z" fill="#6AB354"/>
<path d="M21.6783 64.4405H1.04722C0.469124 64.4405 0.000732422 63.9722 0.000732422 63.3941V45.6285C0.000732422 45.0513 0.469124 44.582 1.04722 44.582H21.6783C22.2564 44.582 22.7247 45.0504 22.7247 45.6285V63.3941C22.7247 63.9722 22.2564 64.4405 21.6783 64.4405ZM2.09277 62.3485H20.6318V46.6758H2.09277V62.3485Z" fill="#6AB354"/>
<path d="M77.5187 64.4405H53.2853C52.7081 64.4405 52.2388 63.9722 52.2388 63.3941V45.6285C52.2388 45.0513 52.7072 44.582 53.2853 44.582H77.5187C78.0968 44.582 78.566 45.0504 78.566 45.6285V63.3941C78.566 63.9722 78.0977 64.4405 77.5187 64.4405ZM54.3317 62.3485H76.4722V46.6758H54.3317V62.3485Z" fill="#6AB354"/>
<path d="M87.7397 64.4405H81.3575C80.7803 64.4405 80.311 63.9721 80.311 63.3941V35.9097C80.311 35.3325 80.7794 34.8633 81.3575 34.8633H87.7397C88.3169 34.8633 88.7861 35.3316 88.7861 35.9097V63.3941C88.7861 63.9721 88.3177 64.4405 87.7397 64.4405ZM82.4039 62.3485H86.6941V36.9571H82.4039V62.3485Z" fill="#6AB354"/>
<path d="M94.4528 64.4416H87.7406C87.1634 64.4416 86.6941 63.9733 86.6941 63.3952V39.5133C86.6941 38.9361 87.1625 38.4668 87.7406 38.4668H94.4528C95.03 38.4668 95.4993 38.9352 95.4993 39.5133V63.3952C95.4993 63.9733 95.03 64.4416 94.4528 64.4416ZM88.7861 62.3496H93.4064V40.5606H88.7861V62.3496Z" fill="#6AB354"/>
<path d="M94.3948 43.6662H53.2853C52.7081 43.6662 52.2388 43.1978 52.2388 42.6197C52.2388 42.0416 52.7072 41.5732 53.2853 41.5732H94.3948C94.972 41.5732 95.4413 42.0416 95.4413 42.6197C95.4413 43.1978 94.9729 43.6662 94.3948 43.6662Z" fill="#6AB354"/>
<path d="M94.3949 52.2852H78.294C77.7168 52.2852 77.2476 51.8169 77.2476 51.2388C77.2476 50.6607 77.7159 50.1914 78.294 50.1914H94.3949C94.9721 50.1914 95.4414 50.6598 95.4414 51.2388C95.4414 51.8169 94.973 52.2852 94.3949 52.2852Z" fill="#6AB354"/>
<path d="M63.9499 50.7461H56.0903V52.7105H63.9499V50.7461Z" fill="#6AB354"/>
<path d="M74.7168 50.7461H66.8545V52.7105H74.7168V50.7461Z" fill="#6AB354"/>
<path d="M21.6789 55.3134H6.04185C5.6279 55.3134 5.25325 55.0698 5.08553 54.6907C4.91781 54.3124 4.98916 53.8699 5.26751 53.5639L8.4613 50.0437C8.65935 49.8251 8.94122 49.7002 9.23651 49.7002H21.6807C22.2588 49.7002 22.7271 50.1686 22.7271 50.7467V54.2669C22.7253 54.845 22.257 55.3134 21.6789 55.3134ZM8.40418 53.2196H20.6333V51.7922H9.69955L8.40418 53.2196Z" fill="#6AB354"/>
<path d="M9.15171 64.4415C8.57362 64.4415 8.10522 63.9732 8.10522 63.3951V54.5123C8.10522 53.9351 8.57362 53.4658 9.15171 53.4658C9.7298 53.4658 10.1981 53.9342 10.1981 54.5123V63.3951C10.1981 63.9732 9.7298 64.4415 9.15171 64.4415Z" fill="#6AB354"/>
<path d="M93.7614 68.6271H1.04643C0.468337 68.6271 0 68.1587 0 67.5806C0 67.0025 0.468337 66.5342 1.04643 66.5342H93.7614C94.3395 66.5342 94.8087 67.0025 94.8087 67.5806C94.8087 68.1587 94.3403 68.6271 93.7614 68.6271Z" fill="#6AB354"/>
<path d="M51.0227 9.69824H1.43726V28.6222" stroke="#6AB354" stroke-width="1.91635" stroke-linecap="round"/>
<path d="M1.43726 28.6221V40.8388" stroke="#6AB354" stroke-width="1.91635" stroke-linecap="round"/>
</svg>
