<svg width="28" height="28" viewBox="0 0 28 28" fill="none" xmlns="http://www.w3.org/2000/svg">
<path d="M26.8442 18.6342H23.9068C24.7495 14.7306 23.3061 10.7409 20.1541 8.10604C20.4043 8.01497 20.6008 7.80351 20.665 7.53216C20.7511 7.166 20.5739 6.78924 20.2377 6.62082L14.5775 3.79072L14.1989 0.710482C14.1484 0.304401 13.8034 0 13.3948 0H10.8018C10.3926 0 10.0476 0.304401 9.99775 0.710482L9.61911 3.79072L3.9589 6.62082C3.33325 6.93333 3.37194 7.84405 4.02629 8.0998C-1.10556 12.3546 -1.41495 19.7639 3.57779 24.3749C7.04664 27.578 11.9957 28.4126 16.2075 26.9792C19.1498 28.2648 22.7447 27.7315 25.238 25.2382C26.7968 23.6806 27.6545 21.6234 27.6545 19.4445C27.6545 18.9973 27.2914 18.6342 26.8442 18.6342ZM22.8595 20.2548C22.4921 21.8012 21.1011 22.9558 19.4437 22.9558C17.7875 22.9558 16.3952 21.8012 16.0284 20.2548H22.8595ZM10.7332 5.04576C10.9752 4.92412 11.1411 4.68897 11.1748 4.42012L11.5191 1.62058H12.6781L13.0231 4.42012C13.0561 4.68897 13.2221 4.92412 13.4647 5.04576L16.4445 6.53598H15.1233C14.5039 6.53598 14.111 7.20654 14.4197 7.74798L14.9038 8.59508L12.4336 7.47165C12.2209 7.37497 11.9764 7.37497 11.763 7.47165L9.29287 8.59508L9.77693 7.74798C10.0844 7.21028 9.69645 6.53598 9.07391 6.53598H7.75276L10.7332 5.04576ZM1.61972 16.4198C1.61972 13.0221 3.61707 9.87197 6.84389 8.15594H7.67726L6.6418 9.96803C6.46776 10.2731 6.50954 10.6561 6.74657 10.9162C6.98361 11.1757 7.35974 11.2536 7.68099 11.1083L12.0986 9.09972L16.5162 11.1083C16.8375 11.2536 17.2136 11.1757 17.45 10.9162C17.6871 10.6561 17.7289 10.2737 17.5549 9.96803L16.5187 8.15594H17.3396C21.2813 10.2643 23.3067 14.5011 22.2413 18.6342H12.098C11.6495 18.6342 11.2871 18.9973 11.2871 19.4445C11.2871 22.0133 12.466 24.31 14.3062 25.8158C7.8251 27.1152 1.61972 22.5522 1.61972 16.4198ZM19.4443 26.0335C16.1127 26.0335 13.3549 23.5066 12.9582 20.2542H14.3779C14.7672 22.7 16.8905 24.5757 19.4443 24.5757C21.9987 24.5757 24.122 22.7 24.5112 20.2542H25.984C25.5829 23.5066 22.8027 26.0335 19.4443 26.0335Z" fill="#8FC67E"/>
</svg>
