<svg width="11" height="13" viewBox="0 0 11 13" fill="none" xmlns="http://www.w3.org/2000/svg">
<path d="M2.83871 6.21608C2.83871 5.88945 2.61179 5.69434 2.21167 5.69434C2.04835 5.69434 1.9379 5.71024 1.87988 5.72571V6.77479C1.94865 6.79026 2.03288 6.79585 2.14849 6.79585C2.57526 6.79585 2.83871 6.57967 2.83871 6.21608ZM5.3168 5.70465C5.13758 5.70465 5.02154 5.72055 4.95278 5.73645V8.06068C5.02154 8.07658 5.13199 8.07658 5.23213 8.07658C5.95931 8.08174 6.43378 7.68119 6.43378 6.83281C6.43937 6.09489 6.00702 5.70465 5.3168 5.70465Z" fill="white"/>
<path d="M10.0645 4.33944H9.77309V2.93365C9.77285 2.92472 9.77199 2.91581 9.77051 2.907C9.77098 2.85046 9.75099 2.79566 9.71421 2.75271L7.37495 0.0812274L7.37323 0.0795084C7.34352 0.0472715 7.30565 0.0236612 7.26363 0.0111742L7.25074 0.00687632C7.23288 0.00242428 7.21456 0.000115957 7.19616 0H1.44705C1.18446 0 0.971292 0.213598 0.971292 0.475761V4.33944H0.679905C0.304281 4.33944 0 4.64372 0 5.01935V8.55554C0 8.93073 0.304711 9.23544 0.679905 9.23544H0.971292V11.6564C0.971292 11.9185 1.18446 12.1321 1.44705 12.1321H9.29733C9.55949 12.1321 9.77309 11.9185 9.77309 11.6564V9.23544H10.0645C10.4401 9.23544 10.7444 8.93073 10.7444 8.55554V5.01935C10.7444 4.64372 10.4397 4.33944 10.0645 4.33944ZM1.44705 0.475761H6.95806V2.91001C6.95806 3.04152 7.06465 3.14767 7.19616 3.14767H9.29776V4.33944H1.44705V0.475761ZM7.2877 6.80635C7.2877 7.48626 7.04015 7.95557 6.69676 8.24524C6.32286 8.55597 5.75383 8.70381 5.05803 8.70381C4.64157 8.70381 4.34675 8.67717 4.14604 8.65138V5.16203C4.4413 5.11476 4.82595 5.08854 5.23209 5.08854C5.9064 5.08854 6.34391 5.20974 6.68645 5.46803C7.05562 5.7418 7.2877 6.17931 7.2877 6.80635ZM1.08346 8.66728V5.16203C1.33101 5.11991 1.67913 5.08854 2.16908 5.08854C2.66461 5.08854 3.01788 5.18352 3.25469 5.37305C3.48118 5.55227 3.63375 5.84752 3.63375 6.19521C3.63375 6.54333 3.51814 6.83816 3.30712 7.03843C3.03292 7.29673 2.62722 7.41277 2.15274 7.41277C2.04745 7.41277 1.95247 7.40761 1.87898 7.39686V8.66728H1.08346ZM9.29733 11.5274H1.44705V9.23544H9.29733V11.5274ZM9.98669 5.7736H8.62129V6.58545H9.89687V7.23914H8.62129V8.66728H7.81546V5.11476H9.98669V5.7736Z" fill="white"/>
</svg>
