<svg width="25" height="29" viewBox="0 0 25 29" fill="none" xmlns="http://www.w3.org/2000/svg">
<path d="M1.53353 8.05174C3.18966 6.42124 5.81397 5.8204 8.1744 6.49392C8.41574 6.31948 8.67118 6.16394 8.93846 6.02827C9.65459 3.82357 9.80573 2.30742 10.0053 0.736032C10.0589 0.317382 10.4711 0 10.9611 0H14.0371C14.5277 0 14.9393 0.317382 14.9924 0.736032C15.192 2.30452 15.3363 3.79935 16.0609 6.02827C16.3282 6.16443 16.5831 6.32045 16.8244 6.49392C19.1849 5.8204 21.8092 6.42124 23.4659 8.05174C24.6466 9.21466 25.184 10.758 24.941 12.2877L23.1963 23.2889C22.7424 26.1443 19.3799 27.9231 16.2261 27.0252C14.0794 28.5835 10.9211 28.5845 8.77212 27.0252C5.60815 27.926 2.25417 26.1337 1.80249 23.2884L0.0572491 12.2877C-0.185787 10.7584 0.352749 9.21515 1.53353 8.05174ZM13.1761 1.65231H11.8227C11.666 2.88936 11.5205 3.89771 11.1156 5.38431C11.3643 5.35572 11.618 5.34166 11.874 5.34166C13.215 5.34166 13.4095 5.33052 13.8832 5.38382C13.4947 3.95828 13.3424 2.95914 13.1761 1.65231ZM21.291 23.0655L23.0373 12.0643C23.4207 9.6493 21.0169 7.5735 18.1851 7.91026C18.6903 8.69426 18.9356 9.58438 18.8916 10.5065L18.2663 23.441C18.229 24.2207 17.9832 24.9494 17.5812 25.5924C19.433 25.7412 21.0485 24.5933 21.291 23.0655ZM12.5 26.5416C14.57 26.5416 16.2588 25.1495 16.3446 23.3717L16.9693 10.4372C17.0601 8.56004 15.3188 6.99349 13.1248 6.99349H11.874C9.68729 6.99349 7.93702 8.55374 8.02837 10.4372L8.65369 23.3717C8.73997 25.1495 10.4294 26.5416 12.5 26.5416ZM1.96264 12.0643L3.70785 23.065C3.95032 24.5879 5.55965 25.7412 7.41878 25.5919C7.01616 24.9494 6.77257 24.2197 6.73423 23.441L6.10887 10.5065C6.06376 9.58438 6.31019 8.69426 6.81487 7.91026C3.98134 7.5735 1.57919 9.64979 1.96264 12.0643Z" fill="#8FC67E"/>
</svg>
