<svg width="20" height="28" viewBox="0 0 20 28" fill="none" xmlns="http://www.w3.org/2000/svg">
<path d="M20 17.8833C20 16.5394 19.4135 15.2699 18.4098 14.3965C18.6213 11.6306 16.2475 9.25679 13.482 9.46792C13.3291 9.29152 13.1635 9.12866 12.9876 8.97889C16.3097 7.75587 18.6849 4.55914 18.6849 0.817451C18.6849 0.366319 18.3191 0 17.8679 0C14.3879 0 11.3798 2.05581 9.99163 5.01704C8.60394 2.05581 5.59534 0 2.1153 0C1.66417 0 1.2983 0.365868 1.2983 0.817451C1.2983 4.56005 3.67531 7.75812 6.99971 8.97979C6.82377 9.12957 6.65911 9.29197 6.50663 9.46792C3.74118 9.25679 1.36688 11.6302 1.57846 14.3952C-0.526075 16.16 -0.526078 19.6058 1.578 21.3701C1.36958 24.1338 3.73984 26.5045 6.50347 26.2952C8.26875 28.4037 11.7199 28.4033 13.4843 26.2952C16.2479 26.504 18.6186 24.1333 18.4102 21.3697C19.4135 20.4972 20 19.2273 20 17.8833ZM13.7987 11.0911C17.327 11.1741 17.8928 16.063 14.5264 16.9766C14.1642 15.1526 12.7255 13.7117 10.9025 13.3468C11.23 12.0525 12.4043 11.0911 13.7987 11.0911ZM12.9808 17.8788C12.9808 19.5264 11.6405 20.8662 9.99298 20.8662C6.03429 20.716 6.03519 15.0403 9.99298 14.8905C11.641 14.891 12.9808 16.2308 12.9808 17.8788ZM16.9977 1.68859C16.603 4.88622 14.0613 7.42925 10.8628 7.82399C11.2575 4.62546 13.7996 2.08333 16.9977 1.68859ZM9.99389 9.51122C10.5808 9.51122 11.1465 9.68491 11.6256 9.99755C10.9683 10.3467 10.4103 10.8484 9.99389 11.4515C9.57794 10.8484 9.02033 10.3467 8.36258 9.99755C8.84213 9.68446 9.40696 9.51122 9.99389 9.51122ZM2.98598 1.68859C6.18451 2.08333 8.7271 4.62546 9.12139 7.82399C5.92376 7.4288 3.38117 4.88622 2.98598 1.68859ZM6.18948 11.0911C7.58393 11.0911 8.75868 12.0525 9.08576 13.3468C7.26228 13.7108 5.82271 15.1517 5.46 16.9766C2.0941 16.0585 2.66568 11.1727 6.18948 11.0911ZM2.10809 19.5151C1.46477 18.5645 1.46477 17.203 2.10809 16.252C2.45726 16.9089 2.95892 17.4665 3.56208 17.8833C2.95937 18.3002 2.45771 18.8578 2.10809 19.5151ZM6.18948 24.672C2.66207 24.5894 2.09635 19.7019 5.46135 18.787C5.82586 20.6091 7.26498 22.0473 9.08756 22.4109C8.76229 23.7079 7.58664 24.672 6.18948 24.672ZM9.99389 26.2555C9.40696 26.2555 8.84168 26.0822 8.36258 25.7696C9.02033 25.42 9.57749 24.9188 9.99389 24.3151C10.4103 24.9188 10.9683 25.42 11.6256 25.7696C11.1465 26.0822 10.5813 26.2555 9.99389 26.2555ZM13.7987 24.672C12.4016 24.672 11.2259 23.7079 10.9007 22.4105C12.7223 22.0464 14.161 20.6077 14.525 18.7865C17.895 19.701 17.3252 24.5903 13.7987 24.672ZM17.8801 19.5151C17.5309 18.8578 17.0293 18.3002 16.4257 17.8833C17.0293 17.4665 17.5309 16.9089 17.8801 16.252C18.5234 17.203 18.5234 18.5645 17.8801 19.5151Z" fill="#8FC67E"/>
</svg>
