<svg width="54" height="54" viewBox="0 0 54 54" fill="none" xmlns="http://www.w3.org/2000/svg">
<path d="M26.6286 53.2839C41.3351 53.2839 53.2572 41.3559 53.2572 26.642C53.2572 11.928 41.3351 0 26.6286 0C11.922 0 0 11.928 0 26.642C0 41.3559 11.922 53.2839 26.6286 53.2839Z" fill="#6CB565"/>
<path d="M27.1309 42.796C27.0694 42.796 27.007 42.7926 26.9451 42.7894L26.8822 42.7865L26.8193 42.7894C26.6974 42.796 26.5711 42.806 26.4633 42.7655C19.6477 42.2218 12.7515 33.7018 12.7515 25.771C12.7515 18.8924 22.3789 18.1499 26.5181 18.1499C26.6496 18.1499 26.7732 18.1506 26.888 18.1521C26.9914 18.1509 27.1148 18.1499 27.2464 18.1499C29.0194 18.1499 32.435 18.2987 35.3898 19.2945C39.0682 20.5344 41.0129 22.774 41.0129 25.771C41.0129 33.705 34.1112 42.2291 27.293 42.7662C27.2418 42.7855 27.1874 42.796 27.1309 42.796ZM26.5179 19.1254C22.672 19.1254 13.7265 19.7731 13.7265 25.7707C13.7265 33.1595 20.3762 41.3997 26.6632 41.8015C26.6939 41.8034 26.7239 41.8081 26.7529 41.8159C26.7573 41.8154 26.7615 41.8154 26.7659 41.8149L26.8639 41.81C26.8761 41.8095 26.8883 41.8095 26.9002 41.81L26.9982 41.8149C27.0024 41.8154 27.0065 41.8154 27.0106 41.8159C27.0397 41.8083 27.0697 41.8034 27.1004 41.8015C33.3874 41.3999 40.0371 33.1595 40.0371 25.7707C40.0371 19.7731 31.0919 19.1254 27.2459 19.1254C27.1184 19.1254 26.999 19.1261 26.8875 19.1276C26.7651 19.1264 26.6452 19.1254 26.5179 19.1254Z" fill="white"/>
<path d="M30.1957 19.0642C30.1316 19.0642 30.0665 19.0515 30.0038 19.0244C29.7573 18.9181 29.6425 18.6337 29.7473 18.3866C29.7953 18.2734 30.8718 15.8313 34.5558 14.4023C33.2604 13.9025 31.0034 13.3927 29.168 14.8617C29.0137 14.9851 28.8003 15.0034 28.6272 14.9075C28.4544 14.8117 28.3564 14.6212 28.379 14.4248C28.3837 14.3853 28.8023 10.403 26.1535 9.38531C25.9021 9.28871 25.7766 9.00648 25.8731 8.75498C25.9697 8.50348 26.2513 8.37786 26.5031 8.47445C28.9425 9.41166 29.3506 12.0857 29.3831 13.5517C32.4827 11.873 35.9568 13.9674 36.116 14.0652C36.2808 14.1667 36.37 14.356 36.3434 14.5477C36.3169 14.7395 36.1796 14.8973 35.9933 14.9502C31.8378 16.1292 30.6555 18.7442 30.6441 18.7705C30.5641 18.9539 30.3842 19.0642 30.1957 19.0642Z" fill="white"/>
<path d="M22.4603 19.0652C22.2713 19.0652 22.0914 18.9544 22.0121 18.77C21.9975 18.7366 20.8128 16.1272 16.6631 14.95C16.4768 14.8971 16.3396 14.7392 16.313 14.5475C16.2864 14.3558 16.3756 14.1665 16.5405 14.065C16.6997 13.9669 20.1733 11.8725 23.2736 13.5513C23.306 12.085 23.7144 9.41117 26.1535 8.47396C26.4049 8.37737 26.687 8.503 26.7836 8.7545C26.8801 9.006 26.7545 9.28823 26.5032 9.38482C23.8451 10.4062 24.273 14.3843 24.2776 14.4243C24.3003 14.6207 24.2023 14.8114 24.0294 14.9073C23.8563 15.0032 23.6432 14.9849 23.4887 14.8614C21.6535 13.3927 19.3965 13.902 18.1009 14.4023C21.7851 15.8313 22.8613 18.2734 22.9094 18.3865C23.0147 18.6346 22.8991 18.921 22.6512 19.0264C22.5885 19.0527 22.5239 19.0652 22.4603 19.0652Z" fill="white"/>
<path d="M22.4754 26.2592C21.6769 26.2592 21.0747 25.3079 21.0747 24.0462C21.0747 22.7851 21.6769 21.834 22.4754 21.834C23.2739 21.834 23.8759 22.7851 23.8759 24.0462C23.8759 25.3076 23.2739 26.2592 22.4754 26.2592ZM22.4754 22.8095C22.3913 22.8095 22.05 23.2071 22.05 24.046C22.05 24.8854 22.3913 25.2832 22.4754 25.2832C22.5595 25.2832 22.9006 24.8854 22.9006 24.046C22.9006 23.2071 22.5595 22.8095 22.4754 22.8095Z" fill="white"/>
<path d="M31.095 26.2592C30.2963 26.2592 29.6941 25.3079 29.6941 24.0462C29.6941 22.7851 30.2963 21.834 31.095 21.834C31.8933 21.834 32.4953 22.7851 32.4953 24.0462C32.4955 25.3076 31.8933 26.2592 31.095 26.2592ZM31.095 22.8095C31.0107 22.8095 30.6693 23.2071 30.6693 24.046C30.6693 24.8854 31.0107 25.2832 31.095 25.2832C31.1792 25.2832 31.52 24.8854 31.52 24.046C31.5203 23.2071 31.1792 22.8095 31.095 22.8095Z" fill="white"/>
<path d="M27.2413 30.2155C26.4428 30.2155 25.8406 29.2644 25.8406 28.0028C25.8406 26.7416 26.4428 25.7905 27.2413 25.7905C28.0395 25.7905 28.6415 26.7416 28.6415 28.0028C28.6415 29.2644 28.0395 30.2155 27.2413 30.2155ZM27.2413 26.7663C27.1572 26.7663 26.8158 27.1639 26.8158 28.0028C26.8158 28.8419 27.1572 29.2398 27.2413 29.2398C27.3254 29.2398 27.6663 28.8419 27.6663 28.0028C27.6663 27.1639 27.3254 26.7663 27.2413 26.7663Z" fill="white"/>
<path d="M27.2413 39.0422C26.4428 39.0422 25.8406 38.0911 25.8406 36.8295C25.8406 35.5683 26.4428 34.6172 27.2413 34.6172C28.0395 34.6172 28.6415 35.5683 28.6415 36.8295C28.6415 38.0908 28.0395 39.0422 27.2413 39.0422ZM27.2413 35.5927C27.1572 35.5927 26.8158 35.9903 26.8158 36.8292C26.8158 37.6683 27.1572 38.0662 27.2413 38.0662C27.3254 38.0662 27.6663 37.6683 27.6663 36.8292C27.6663 35.9903 27.3254 35.5927 27.2413 35.5927Z" fill="white"/>
<path d="M22.0697 34.5273C21.2712 34.5273 20.6689 33.5759 20.6689 32.3143C20.6689 31.0529 21.2712 30.1021 22.0697 30.1021C22.8679 30.1021 23.4699 31.0529 23.4699 32.3143C23.4699 33.5759 22.8679 34.5273 22.0697 34.5273ZM22.0697 31.0775C21.9855 31.0775 21.6442 31.4754 21.6442 32.3141C21.6442 33.1532 21.9855 33.5513 22.0697 33.5513C22.1538 33.5513 22.4946 33.1532 22.4946 32.3141C22.4946 31.4754 22.1538 31.0775 22.0697 31.0775Z" fill="white"/>
<path d="M17.7098 30.2155C16.9111 30.2155 16.3088 29.2644 16.3088 28.0028C16.3088 26.7416 16.9111 25.7905 17.7098 25.7905C18.508 25.7905 19.11 26.7416 19.11 28.0028C19.11 29.2644 18.508 30.2155 17.7098 30.2155ZM17.7098 26.7663C17.6254 26.7663 17.2841 27.1639 17.2841 28.0028C17.2841 28.8419 17.6254 29.2398 17.7098 29.2398C17.7939 29.2398 18.1348 28.8419 18.1348 28.0028C18.1348 27.1639 17.7939 26.7663 17.7098 26.7663Z" fill="white"/>
<path d="M31.095 34.5273C30.2963 34.5273 29.6941 33.5759 29.6941 32.3143C29.6941 31.0529 30.2963 30.1021 31.095 30.1021C31.8933 30.1021 32.4953 31.0529 32.4953 32.3143C32.4955 33.5759 31.8933 34.5273 31.095 34.5273ZM31.095 31.0775C31.0107 31.0775 30.6693 31.4754 30.6693 32.3141C30.6693 33.1532 31.0107 33.5513 31.095 33.5513C31.1792 33.5513 31.52 33.1532 31.52 32.3141C31.5203 31.4754 31.1792 31.0775 31.095 31.0775Z" fill="white"/>
<path d="M35.3675 29.7084C34.569 29.7084 33.9668 28.7571 33.9668 27.4955C33.9668 26.2343 34.569 25.2832 35.3675 25.2832C36.1657 25.2832 36.7677 26.2343 36.7677 27.4955C36.7677 28.7571 36.1657 29.7084 35.3675 29.7084ZM35.3675 26.2589C35.2834 26.2589 34.9421 26.6566 34.9421 27.4955C34.9421 28.3349 35.2834 28.7327 35.3675 28.7327C35.4516 28.7327 35.7925 28.3349 35.7925 27.4955C35.7925 26.6566 35.4516 26.2589 35.3675 26.2589Z" fill="white"/>
</svg>
