<svg width="25" height="28" viewBox="0 0 25 28" fill="none" xmlns="http://www.w3.org/2000/svg">
<path d="M20.6043 9.08229C19.7444 8.72097 18.7495 8.44873 17.5649 8.26005C18.4435 7.4367 19.6365 6.40586 20.5384 5.95545C20.7847 5.83206 20.9529 5.59412 20.9866 5.32133C21.0204 5.04799 20.9147 4.77576 20.7061 4.59703C20.6696 4.56494 19.7898 3.81961 18.5376 3.4439C17.2716 3.06432 16.0748 3.1772 15.0146 3.76594C14.313 1.01204 12.8157 0.182597 12.6242 0.0863188C12.3929 -0.0287729 12.1212 -0.0287729 11.8894 0.0863188C11.6974 0.182597 10.1957 1.01204 9.49461 3.76594C8.43388 3.1772 7.23704 3.06432 5.97158 3.4439C4.7194 3.81961 3.83962 4.56494 3.80365 4.59703C3.59449 4.77576 3.4888 5.04799 3.52256 5.32133C3.55575 5.59412 3.72397 5.83261 3.97076 5.95545C4.87268 6.40586 6.06565 7.4367 6.94488 8.26005C-2.12357 9.47183 -1.41643 17.6848 3.94972 23.5921C9.28046 29.4546 15.2342 29.4557 20.565 23.5916C24.6922 19.1119 26.879 11.8229 20.6043 9.08229ZM5.88692 5.22727C6.07007 5.14427 6.27148 5.06681 6.48617 5.00484C7.63155 4.67505 8.60928 4.93622 9.47413 5.80163C9.69657 6.02351 10.0252 6.09931 10.3218 5.9975C10.6184 5.89513 10.8314 5.63341 10.8707 5.32189C11.1208 3.32051 11.8125 2.31567 12.2529 1.86415C12.6928 2.31511 13.385 3.31996 13.6351 5.32189C13.6744 5.63341 13.8875 5.89513 14.184 5.9975C14.4806 6.09931 14.8093 6.02351 15.0317 5.80163C15.8966 4.93622 16.8749 4.67505 18.0202 5.00484C18.2349 5.06681 18.4363 5.14372 18.6195 5.22727C17.3397 6.15741 16.0128 7.4533 15.4506 8.02212C13.5964 7.88434 10.9089 7.88434 9.05526 8.02212C8.49364 7.45386 7.16676 6.15686 5.88692 5.22727ZM19.3477 22.4861C17.1211 24.9356 14.4707 26.3975 12.2563 26.3975C7.56461 26.5309 1.49351 19.4749 1.63904 14.9C1.63904 12.7995 2.56254 11.4323 4.54621 10.5979C7.31395 9.20735 17.1997 9.20735 19.9674 10.5979C25.0906 12.7901 22.5896 18.8834 19.3477 22.4861Z" fill="#489017"/>
<path d="M8.736 11.4385C8.28282 11.4385 7.91431 11.8059 7.91431 12.2596V13.1394C7.95525 14.2283 9.51729 14.2272 9.55768 13.1394V12.2596C9.55768 11.8059 9.19028 11.4385 8.736 11.4385Z" fill="#489017"/>
<path d="M8.736 18.4785C8.28282 18.4785 7.91431 18.8465 7.91431 19.2997V20.18C7.95525 21.2689 9.51729 21.2678 9.55768 20.18V19.2997C9.55768 18.8465 9.19028 18.4785 8.736 18.4785Z" fill="#489017"/>
<path d="M15.7753 11.4385C15.3221 11.4385 14.9536 11.8059 14.9536 12.2596V13.1394C14.9946 14.2283 16.5571 14.2272 16.5975 13.1394V12.2596C16.597 11.8059 16.229 11.4385 15.7753 11.4385Z" fill="#489017"/>
<path d="M15.7753 18.4785C15.3221 18.4785 14.9536 18.8465 14.9536 19.2997V20.18C14.9946 21.2689 16.5571 21.2678 16.5975 20.18V19.2997C16.597 18.8465 16.229 18.4785 15.7753 18.4785Z" fill="#489017"/>
<path d="M12.2558 14.9585C11.802 14.9585 11.4341 15.3265 11.4341 15.7796V16.66C11.4745 17.7489 13.0376 17.7478 13.0775 16.66V15.7796C13.0775 15.3265 12.7101 14.9585 12.2558 14.9585Z" fill="#489017"/>
<path d="M19.2951 14.9585C18.8414 14.9585 18.4734 15.3265 18.4734 15.7796V16.66C18.5138 17.7489 20.0769 17.7478 20.1173 16.66V15.7796C20.1173 15.3265 19.7494 14.9585 19.2951 14.9585Z" fill="#489017"/>
<path d="M5.21695 14.9585C4.76323 14.9585 4.39526 15.3265 4.39526 15.7796V16.66C4.43566 17.7489 5.99769 17.7478 6.03808 16.66V15.7796C6.03808 15.3265 5.67013 14.9585 5.21695 14.9585Z" fill="#489017"/>
<path d="M12.2558 21.998C11.802 21.998 11.4341 22.366 11.4341 22.8192V23.6995C11.4745 24.7885 13.0376 24.7874 13.0775 23.6995V22.8192C13.0775 22.366 12.7101 21.998 12.2558 21.998Z" fill="#489017"/>
</svg>
