<svg width="54" height="54" viewBox="0 0 54 54" fill="none" xmlns="http://www.w3.org/2000/svg">
<path d="M26.9768 53.9624C41.8756 53.9624 53.9535 41.8825 53.9535 26.9812C53.9535 12.0799 41.8756 0 26.9768 0C12.0779 0 0 12.0799 0 26.9812C0 41.8825 12.0779 53.9624 26.9768 53.9624Z" fill="#6CB565"/>
<path d="M26.976 41.5448C18.6935 41.5448 11.9551 34.8052 11.9551 26.5214C11.9551 18.2376 18.6935 11.498 26.976 11.498C35.2584 11.498 41.9969 18.2376 41.9969 26.5214C41.9969 34.8052 35.2587 41.5448 26.976 41.5448ZM26.976 12.486C19.2382 12.486 12.9431 18.7821 12.9431 26.5212C12.9431 34.2603 19.2382 40.5564 26.976 40.5564C34.7138 40.5564 41.0089 34.2603 41.0089 26.5212C41.0089 18.7821 34.7141 12.486 26.976 12.486Z" fill="white"/>
<path d="M19.2671 34.679C18.9356 34.679 18.6086 34.6253 18.3003 34.4969C17.7861 34.2824 17.1263 33.76 16.9038 32.4874C16.7069 31.4047 16.7729 30.1862 16.8366 29.0078C16.8672 28.4382 16.8964 27.9004 16.8964 27.387C16.8964 26.866 16.7595 25.6698 16.6271 24.5127C16.4587 23.0413 16.2999 21.6512 16.3404 21.0822C16.3683 20.3194 16.5204 19.5698 16.6679 18.8448C16.8895 17.7533 17.0989 16.7227 16.904 15.6315C16.8561 15.363 17.0347 15.1063 17.3034 15.0584C17.5739 15.0102 17.8288 15.1893 17.8765 15.4578C18.1045 16.7345 17.8663 17.9073 17.6359 19.0414C17.4902 19.7588 17.3526 20.4367 17.3266 21.1359C17.2913 21.6302 17.4598 23.1018 17.6085 24.4005C17.7503 25.6394 17.8841 26.8097 17.8841 27.387C17.8841 27.9268 17.853 28.5036 17.8229 29.061C17.7621 30.1823 17.6996 31.3419 17.8762 32.3138C17.995 32.9939 18.2581 33.4084 18.6805 33.5845C19.5094 33.9302 20.9371 33.3513 21.9834 32.6233C21.9908 32.6181 21.9987 32.6129 22.0066 32.608C23.7892 31.5109 24.7152 30.0884 24.8372 28.2593C24.9625 26.1889 24.1646 25.4438 22.3294 24.5576C20.7444 23.7997 18.3468 22.6527 18.4288 20.1954C18.4466 19.644 18.6412 19.2183 19.007 18.9312C19.8379 18.2795 21.2994 18.5879 22.5885 18.8601C23.1136 18.971 23.6094 19.0755 23.9596 19.0916C24.6599 19.1187 28.1856 19.1392 28.3898 16.8936C28.4464 16.2187 28.1621 15.5253 27.8615 14.7913C27.4932 13.8923 27.1124 12.9627 27.2801 11.9143C27.323 11.6447 27.576 11.4602 27.846 11.5047C28.1152 11.5476 28.2987 11.8011 28.2555 12.0706C28.1317 12.8446 28.4447 13.6082 28.7757 14.4165C29.1074 15.2263 29.4502 16.0636 29.3742 16.9791C29.1528 19.4112 26.4156 20.1766 23.9181 20.0787C23.4841 20.0592 22.9501 19.9466 22.3847 19.827C21.4145 19.6227 20.0847 19.3416 19.6171 19.7087C19.5361 19.7724 19.4269 19.8952 19.4163 20.228C19.3602 21.9017 20.9647 22.81 22.7572 23.6673C24.8674 24.6861 25.9801 25.7294 25.823 28.3226C25.6802 30.4627 24.5742 32.1843 22.5359 33.4427C22.0446 33.7832 20.6212 34.679 19.2671 34.679Z" fill="white"/>
<path d="M31.2375 40.9086C31.1372 40.9086 31.0359 40.8783 30.9483 40.8148C29.2879 39.6122 30.5024 37.3088 31.4783 35.4577C31.9108 34.6377 32.3579 33.7899 32.3579 33.3761C32.3579 32.798 32.2596 32.7871 31.6184 32.7165C31.2261 32.6732 30.7381 32.6194 30.2865 32.3294C29.0298 31.5213 28.7084 29.4951 29.2704 28.2912C30.2189 26.0552 33.1597 27.2774 35.1058 28.0859C35.5998 28.2912 36.0669 28.4851 36.4028 28.5835C36.4161 28.5874 36.429 28.5916 36.4418 28.5968C37.3572 28.9489 37.682 28.8883 37.7941 28.8209C37.8663 28.7777 37.913 28.6726 37.9335 28.5089C38.0268 27.8547 37.2028 27.2791 36.6011 26.8594L36.5384 26.8154C36.1138 26.5066 35.4886 26.2907 34.8842 26.0814C33.4929 25.6007 31.587 24.9418 32.3124 22.7056C33.0203 20.5805 36.8496 18.2373 38.6992 17.6684C38.9588 17.5884 39.2364 17.7344 39.3164 17.9952C39.3967 18.2561 39.2502 18.5326 38.9896 18.6126C37.1532 19.1776 33.7816 21.4212 33.251 23.0139C32.8647 24.2054 33.5151 24.5626 35.2071 25.1474C35.8801 25.3798 36.5759 25.6205 37.1124 26.0108L37.1668 26.0486C37.9332 26.5834 39.0909 27.392 38.9126 28.6393C38.839 29.23 38.5396 29.5254 38.3017 29.668C37.6748 30.0437 36.8017 29.7915 36.1059 29.5257C35.7213 29.4116 35.2597 29.2196 34.7264 28.998C32.6279 28.1262 30.701 27.4468 30.1724 28.6927C29.7602 29.5766 30.1033 31.0361 30.8206 31.4976C31.0764 31.6624 31.3921 31.6972 31.7263 31.7338C32.371 31.8049 33.3456 31.9124 33.3456 33.3756C33.3456 34.034 32.8852 34.907 32.3525 35.9182C31.338 37.8421 30.6328 39.3654 31.5277 40.0136C31.7488 40.1737 31.7982 40.4825 31.6381 40.7036C31.5415 40.8377 31.3906 40.9086 31.2375 40.9086Z" fill="white"/>
</svg>
